<?xml version="1.0" encoding="UTF-8"?>
<!DOCTYPE svg PUBLIC "-//W3C//DTD SVG 1.1//EN" "http://www.w3.org/Graphics/SVG/1.1/DTD/svg11.dtd">
<svg xmlns="http://www.w3.org/2000/svg" version="1.1" width="500px" height="500px" style="shape-rendering:geometricPrecision; text-rendering:geometricPrecision; image-rendering:optimizeQuality; fill-rule:evenodd; clip-rule:evenodd" xmlns:xlink="http://www.w3.org/1999/xlink">
<g><path style="opacity:0.753" fill="#888888" d="M 102.5,-0.5 C 105.167,-0.5 107.833,-0.5 110.5,-0.5C 105.95,0.491458 101.283,1.49146 96.5,2.5C 98.3713,1.20278 100.371,0.202776 102.5,-0.5 Z"/></g>
<g><path style="opacity:1" fill="#070707" d="M 110.5,-0.5 C 114.5,-0.5 118.5,-0.5 122.5,-0.5C 126.008,0.78282 129.342,2.44949 132.5,4.5C 132.973,5.90632 133.973,6.57298 135.5,6.5C 136.262,8.26242 137.596,9.26242 139.5,9.5C 140.757,12.4274 142.757,14.7607 145.5,16.5C 145.427,18.0269 146.094,19.0269 147.5,19.5C 148.492,19.3284 149.158,19.6618 149.5,20.5C 150.659,22.2503 152.326,23.2503 154.5,23.5C 165.841,29.8368 177.175,36.1702 188.5,42.5C 188.973,43.9063 189.973,44.573 191.5,44.5C 192.492,44.3284 193.158,44.6618 193.5,45.5C 194.659,47.2503 196.326,48.2503 198.5,48.5C 199.492,48.3284 200.158,48.6618 200.5,49.5C 201.659,51.2503 203.326,52.2503 205.5,52.5C 206.492,52.3284 207.158,52.6618 207.5,53.5C 208.659,55.2503 210.326,56.2503 212.5,56.5C 213.492,56.3284 214.158,56.6618 214.5,57.5C 215.659,59.2503 217.326,60.2503 219.5,60.5C 220.492,60.3284 221.158,60.6618 221.5,61.5C 222.659,63.2503 224.326,64.2503 226.5,64.5C 233.461,67.6467 240.127,71.3134 246.5,75.5C 246.821,77.0481 247.821,77.7148 249.5,77.5C 250.833,78.1667 252.167,78.8333 253.5,79.5C 253.821,81.0481 254.821,81.7148 256.5,81.5C 257.995,81.9887 259.329,82.6554 260.5,83.5C 260.973,84.9063 261.973,85.573 263.5,85.5C 264.492,85.3284 265.158,85.6618 265.5,86.5C 266.659,88.2503 268.326,89.2503 270.5,89.5C 271.492,89.3284 272.158,89.6618 272.5,90.5C 274.336,92.588 276.669,93.9213 279.5,94.5C 280.659,96.2503 282.326,97.2503 284.5,97.5C 286.336,99.588 288.669,100.921 291.5,101.5C 292.659,103.25 294.326,104.25 296.5,104.5C 298.819,104.992 300.819,105.992 302.5,107.5C 303.035,109.446 304.368,110.446 306.5,110.5C 309.764,112.094 312.431,114.427 314.5,117.5C 315.757,120.427 317.757,122.761 320.5,124.5C 320.427,126.027 321.094,127.027 322.5,127.5C 324.008,129.181 325.008,131.181 325.5,133.5C 325.12,135.698 325.787,137.365 327.5,138.5C 327.171,141.228 327.837,143.562 329.5,145.5C 330.449,182.82 330.782,220.153 330.5,257.5C 331.833,257.5 333.167,257.5 334.5,257.5C 337.979,259.403 341.646,261.07 345.5,262.5C 346.5,262.833 347.167,263.5 347.5,264.5C 347.738,266.404 348.738,267.738 350.5,268.5C 350.427,270.027 351.094,271.027 352.5,271.5C 352.5,272.167 352.5,272.833 352.5,273.5C 385.687,274.194 419.02,274.861 452.5,275.5C 455.295,276.063 457.628,277.396 459.5,279.5C 459.427,281.027 460.094,282.027 461.5,282.5C 463.262,283.262 464.262,284.596 464.5,286.5C 465.755,293.596 466.755,300.596 467.5,307.5C 469.181,309.008 471.181,310.008 473.5,310.5C 475.167,312.833 477.167,314.833 479.5,316.5C 479.427,318.027 480.094,319.027 481.5,319.5C 481.41,322.152 482.076,324.485 483.5,326.5C 484.498,352.328 484.831,378.328 484.5,404.5C 485.419,407.089 487.086,409.089 489.5,410.5C 489.427,412.027 490.094,413.027 491.5,413.5C 492.659,417.151 494.326,420.485 496.5,423.5C 496.595,425.786 497.262,427.786 498.5,429.5C 498.5,430.167 498.833,430.5 499.5,430.5C 499.5,436.833 499.5,443.167 499.5,449.5C 497.519,458.101 494.519,466.435 490.5,474.5C 488.738,475.262 487.738,476.596 487.5,478.5C 487.5,479.167 487.167,479.5 486.5,479.5C 483.833,481.5 481.5,483.833 479.5,486.5C 479.5,487.167 479.167,487.5 478.5,487.5C 476.596,487.738 475.262,488.738 474.5,490.5C 474.158,491.338 473.492,491.672 472.5,491.5C 465.021,494.992 457.355,497.658 449.5,499.5C 373.5,499.5 297.5,499.5 221.5,499.5C 219.833,498.833 218.167,498.167 216.5,497.5C 215.22,496.069 213.553,495.402 211.5,495.5C 210.508,495.672 209.842,495.338 209.5,494.5C 208.486,493.326 207.153,492.66 205.5,492.5C 204.508,492.672 203.842,492.338 203.5,491.5C 202.738,489.738 201.404,488.738 199.5,488.5C 198.089,486.086 196.089,484.419 193.5,483.5C 192.5,483.167 191.833,482.5 191.5,481.5C 190.864,479.205 189.531,477.539 187.5,476.5C 187.573,474.973 186.906,473.973 185.5,473.5C 175.358,453.964 175.025,434.297 184.5,414.5C 185.906,414.027 186.573,413.027 186.5,411.5C 187.906,411.027 188.573,410.027 188.5,408.5C 190.129,407.375 191.629,406.041 193,404.5C 193.5,396.841 193.666,389.174 193.5,381.5C 193.216,379.585 193.549,377.919 194.5,376.5C 195.117,376.389 195.617,376.056 196,375.5C 196.497,372.854 196.664,370.187 196.5,367.5C 199.655,348.727 203.321,330.06 207.5,311.5C 210.213,298.927 213.046,286.261 216,273.5C 219.021,266.647 223.855,261.647 230.5,258.5C 234.154,258.058 237.821,257.724 241.5,257.5C 241.5,238.167 241.5,218.833 241.5,199.5C 240.5,199.5 239.5,199.5 238.5,199.5C 236.819,197.992 234.819,196.992 232.5,196.5C 231.738,194.738 230.404,193.738 228.5,193.5C 227.167,191.5 225.5,189.833 223.5,188.5C 223.573,186.973 222.906,185.973 221.5,185.5C 217.561,176.84 216.561,167.84 218.5,158.5C 222.922,153.397 221.922,149.397 215.5,146.5C 207.833,139.5 200.5,132.167 193.5,124.5C 187.167,117.5 180.5,110.833 173.5,104.5C 166.167,97.8333 159.167,90.8333 152.5,83.5C 148.704,79.2022 144.704,75.0356 140.5,71C 139.251,70.2599 138.251,70.4265 137.5,71.5C 137.5,72.1667 137.167,72.5 136.5,72.5C 134.744,73.5521 134.077,75.2188 134.5,77.5C 134.26,81.6061 133.593,85.6061 132.5,89.5C 131.883,89.6107 131.383,89.944 131,90.5C 130.502,93.4816 130.335,96.4816 130.5,99.5C 130.5,99.8333 130.5,100.167 130.5,100.5C 129.883,100.611 129.383,100.944 129,101.5C 128.502,104.482 128.335,107.482 128.5,110.5C 127.354,120.383 125.687,130.05 123.5,139.5C 115.495,178.537 108.495,217.87 102.5,257.5C 102.5,257.833 102.5,258.167 102.5,258.5C 101.778,258.918 101.278,259.584 101,260.5C 100.171,265.137 99.6706,269.804 99.5,274.5C 99.5,274.833 99.5,275.167 99.5,275.5C 97.5873,278.04 97.254,280.707 98.5,283.5C 100.167,284.5 101.5,285.833 102.5,287.5C 102.738,289.404 103.738,290.738 105.5,291.5C 105.427,293.027 106.094,294.027 107.5,294.5C 107.992,296.819 108.992,298.819 110.5,300.5C 111.22,306.138 111.553,311.804 111.5,317.5C 111.127,322.321 110.127,326.988 108.5,331.5C 108.672,332.492 108.338,333.158 107.5,333.5C 106.094,333.973 105.427,334.973 105.5,336.5C 104.84,337.964 104.507,339.631 104.5,341.5C 104.917,348.727 105.917,355.727 107.5,362.5C 107.503,369.533 108.003,376.533 109,383.5C 109.108,387.465 109.941,391.132 111.5,394.5C 112.434,395.568 112.768,396.901 112.5,398.5C 112.794,401.754 114.127,404.421 116.5,406.5C 116.427,408.027 117.094,409.027 118.5,409.5C 120.167,413.167 122.833,415.833 126.5,417.5C 127.5,417.833 128.167,418.5 128.5,419.5C 128.973,420.906 129.973,421.573 131.5,421.5C 132.5,421.833 133.167,422.5 133.5,423.5C 133.973,424.906 134.973,425.573 136.5,425.5C 137.539,427.531 139.205,428.864 141.5,429.5C 142.5,429.833 143.167,430.5 143.5,431.5C 143.973,432.906 144.973,433.573 146.5,433.5C 147.5,433.833 148.167,434.5 148.5,435.5C 148.973,436.906 149.973,437.573 151.5,437.5C 152.469,452.785 152.802,468.119 152.5,483.5C 157.833,483.5 163.167,483.5 168.5,483.5C 168.5,488.833 168.5,494.167 168.5,499.5C 137.833,499.5 107.167,499.5 76.5,499.5C 73.7814,498.087 70.7814,497.42 67.5,497.5C 63.3554,495.264 59.022,493.264 54.5,491.5C 54.0269,490.094 53.0269,489.427 51.5,489.5C 50.0892,487.086 48.0892,485.419 45.5,484.5C 36.5,476.167 27.8333,467.5 19.5,458.5C 18.5977,456.659 17.2644,455.326 15.5,454.5C 8.61606,445.066 3.61606,434.732 0.5,423.5C 0.737305,422.209 0.403972,421.209 -0.5,420.5C -0.5,411.833 -0.5,403.167 -0.5,394.5C 0.166667,393.167 0.833333,391.833 1.5,390.5C 4.62001,382.927 8.28668,375.593 12.5,368.5C 14.2624,367.738 15.2624,366.404 15.5,364.5C 18.5725,362.431 20.9059,359.764 22.5,356.5C 25.2427,354.761 27.2427,352.427 28.5,349.5C 30.914,348.089 32.5806,346.089 33.5,343.5C 35.4628,342.04 37.2962,340.373 39,338.5C 39.6917,337.563 39.525,336.897 38.5,336.5C 31.7694,327.085 29.7694,316.752 32.5,305.5C 33.9238,303.485 34.5905,301.152 34.5,298.5C 34.6596,296.847 35.3263,295.514 36.5,294.5C 38.2624,293.738 39.2624,292.404 39.5,290.5C 41.5,286.5 44.5,283.5 48.5,281.5C 50.4044,281.262 51.7377,280.262 52.5,278.5C 56.533,277.975 60.1996,276.642 63.5,274.5C 67.1095,210.04 69.4428,145.373 70.5,80.5C 70.5,76.1667 70.5,71.8333 70.5,67.5C 71.8614,56.6939 72.5281,45.6939 72.5,34.5C 72.7923,28.9563 74.4589,23.9563 77.5,19.5C 78.9063,19.0269 79.573,18.0269 79.5,16.5C 81.5869,15.4154 82.9202,13.7488 83.5,11.5C 86.4274,10.2427 88.7607,8.24269 90.5,5.5C 92.1815,3.99249 94.1815,2.99249 96.5,2.5C 101.283,1.49146 105.95,0.491458 110.5,-0.5 Z M 117.5,16.5 C 118.93,17.5375 120.597,18.2041 122.5,18.5C 123.514,19.6737 124.847,20.3404 126.5,20.5C 127.5,22.1667 128.833,23.5 130.5,24.5C 130.5,25.1667 130.833,25.5 131.5,25.5C 135.459,32.7515 136.459,40.4182 134.5,48.5C 133.326,49.5137 132.66,50.847 132.5,52.5C 130.738,53.2623 129.738,54.5956 129.5,56.5C 128.833,56.5 128.5,56.8333 128.5,57.5C 126.147,58.3403 124.147,59.6736 122.5,61.5C 118.524,62.2952 114.524,62.9619 110.5,63.5C 108.039,62.469 105.373,61.8023 102.5,61.5C 102.158,60.6618 101.492,60.3284 100.5,60.5C 99.7377,58.7376 98.4044,57.7376 96.5,57.5C 96.1667,56.5 95.5,55.8333 94.5,55.5C 94.573,53.9731 93.9063,52.9731 92.5,52.5C 91.4918,50.4561 90.4918,48.4561 89.5,46.5C 88.1034,38.4847 89.7701,31.1514 94.5,24.5C 95.8333,23.8333 96.8333,22.8333 97.5,21.5C 98.1667,21.5 98.5,21.1667 98.5,20.5C 104.376,17.1426 110.709,15.8092 117.5,16.5 Z M 154.5,42.5 C 154.842,43.3382 155.508,43.6716 156.5,43.5C 156.973,44.9063 157.973,45.573 159.5,45.5C 160.514,46.6737 161.847,47.3404 163.5,47.5C 163.973,48.9063 164.973,49.573 166.5,49.5C 167.514,50.6737 168.847,51.3404 170.5,51.5C 170.973,52.9063 171.973,53.573 173.5,53.5C 174.514,54.6737 175.847,55.3404 177.5,55.5C 177.973,56.9063 178.973,57.573 180.5,57.5C 180.842,58.3382 181.508,58.6716 182.5,58.5C 182.973,59.9063 183.973,60.573 185.5,60.5C 186.514,61.6737 187.847,62.3404 189.5,62.5C 189.973,63.9063 190.973,64.573 192.5,64.5C 192.842,65.3382 193.508,65.6716 194.5,65.5C 195.659,67.2503 197.326,68.2503 199.5,68.5C 199.842,69.3382 200.508,69.6716 201.5,69.5C 202.659,71.2503 204.326,72.2503 206.5,72.5C 206.842,73.3382 207.508,73.6716 208.5,73.5C 209.659,75.2503 211.326,76.2503 213.5,76.5C 214.514,77.6737 215.847,78.3404 217.5,78.5C 217.973,79.9063 218.973,80.573 220.5,80.5C 222.181,82.0075 224.181,83.0075 226.5,83.5C 226.973,84.9063 227.973,85.573 229.5,85.5C 231.181,87.0075 233.181,88.0075 235.5,88.5C 235.973,89.9063 236.973,90.573 238.5,90.5C 239.514,91.6737 240.847,92.3404 242.5,92.5C 242.973,93.9063 243.973,94.573 245.5,94.5C 246.514,95.6737 247.847,96.3404 249.5,96.5C 249.973,97.9063 250.973,98.573 252.5,98.5C 252.842,99.3382 253.508,99.6716 254.5,99.5C 254.973,100.906 255.973,101.573 257.5,101.5C 258.514,102.674 259.847,103.34 261.5,103.5C 261.973,104.906 262.973,105.573 264.5,105.5C 264.842,106.338 265.508,106.672 266.5,106.5C 267.659,108.25 269.326,109.25 271.5,109.5C 271.842,110.338 272.508,110.672 273.5,110.5C 274.659,112.25 276.326,113.25 278.5,113.5C 278.842,114.338 279.508,114.672 280.5,114.5C 281.659,116.25 283.326,117.25 285.5,117.5C 285.842,118.338 286.508,118.672 287.5,118.5C 287.973,119.906 288.973,120.573 290.5,120.5C 291.514,121.674 292.847,122.34 294.5,122.5C 294.973,123.906 295.973,124.573 297.5,124.5C 299.5,127.167 301.833,129.5 304.5,131.5C 304.5,132.167 304.833,132.5 305.5,132.5C 305.427,134.027 306.094,135.027 307.5,135.5C 310.441,141.491 312.274,147.824 313,154.5C 313.5,188.498 313.667,222.498 313.5,256.5C 295.167,256.5 276.833,256.5 258.5,256.5C 258.167,237.821 258.5,219.155 259.5,200.5C 262.349,199.9 264.682,198.567 266.5,196.5C 268.027,196.573 269.027,195.906 269.5,194.5C 270.167,194.5 270.5,194.167 270.5,193.5C 272.833,193.167 274.167,191.833 274.5,189.5C 275.167,189.5 275.5,189.167 275.5,188.5C 276.906,188.027 277.573,187.027 277.5,185.5C 281.156,180.564 282.823,174.898 282.5,168.5C 282.867,163.734 281.867,159.401 279.5,155.5C 279.573,153.973 278.906,152.973 277.5,152.5C 277.573,150.973 276.906,149.973 275.5,149.5C 274.167,146.167 271.833,143.833 268.5,142.5C 267.341,140.75 265.674,139.75 263.5,139.5C 256.096,135.306 248.43,134.639 240.5,137.5C 237.84,138.347 235.174,138.847 232.5,139C 227.298,133.63 221.965,128.464 216.5,123.5C 212.5,119.833 208.5,116.167 204.5,112.5C 195.554,101.886 185.888,91.8864 175.5,82.5C 171.5,78.8333 167.5,75.1667 163.5,71.5C 159.934,66.4266 155.768,61.7599 151,57.5C 151.348,52.2536 152.514,47.2536 154.5,42.5 Z M 91.5,74.5 C 92.287,76.1042 93.6203,76.7709 95.5,76.5C 95.8417,77.3382 96.5084,77.6716 97.5,77.5C 99.1016,79.0739 101.102,79.7406 103.5,79.5C 106.665,80.3222 109.998,80.9889 113.5,81.5C 115.935,79.7207 116.935,80.3873 116.5,83.5C 114.632,91.0425 113.298,98.7091 112.5,106.5C 111.419,109.627 110.753,112.96 110.5,116.5C 110.5,116.833 110.5,117.167 110.5,117.5C 109.419,120.627 108.753,123.96 108.5,127.5C 108.5,127.833 108.5,128.167 108.5,128.5C 104.646,146.616 101.312,164.949 98.5,183.5C 97.5489,184.919 97.2155,186.585 97.5,188.5C 95.8828,193.933 94.8828,199.6 94.5,205.5C 93.0966,208.909 92.4299,212.575 92.5,216.5C 88.4961,233.536 85.4961,250.869 83.5,268.5C 82.8333,270.5 82.1667,272.5 81.5,274.5C 82.5205,245.509 83.1872,216.509 83.5,187.5C 85.0324,156.193 86.0324,124.86 86.5,93.5C 87.3285,86.6787 87.8285,79.6787 88,72.5C 88.8159,73.8228 89.9826,74.4894 91.5,74.5 Z M 257.5,182.5 C 256.508,182.328 255.842,182.662 255.5,183.5C 250.807,184.516 246.14,184.182 241.5,182.5C 240.167,180.5 238.5,178.833 236.5,177.5C 233.388,170.406 234.054,163.74 238.5,157.5C 249.467,150.766 257.967,153.099 264,164.5C 265.293,171.791 263.126,177.791 257.5,182.5 Z M 334.5,275.5 C 334.833,276.5 335.5,277.167 336.5,277.5C 337.481,313.469 337.814,349.469 337.5,385.5C 300.33,385.168 263.33,385.502 226.5,386.5C 222.163,386.584 218.163,387.584 214.5,389.5C 212.784,389.629 211.117,389.962 209.5,390.5C 214.167,366.163 218.834,341.829 223.5,317.5C 226.375,304.976 229.208,292.309 232,279.5C 232.833,277.333 234.333,275.833 236.5,275C 269.196,274.188 301.863,274.355 334.5,275.5 Z M 78.5,291.5 C 80.5,292.167 82.5,292.833 84.5,293.5C 85.2623,295.262 86.5956,296.262 88.5,296.5C 88.7376,298.404 89.7376,299.738 91.5,300.5C 97.48,312.934 95.48,323.934 85.5,333.5C 83.9731,333.427 82.9731,334.094 82.5,335.5C 81.209,335.263 80.209,335.596 79.5,336.5C 74.5128,337.673 69.5128,337.673 64.5,336.5C 63.4863,335.326 62.153,334.66 60.5,334.5C 58.7952,332.808 56.7952,331.475 54.5,330.5C 54.2624,328.596 53.2624,327.262 51.5,326.5C 51.4431,325.391 51.1098,324.391 50.5,323.5C 50.2041,321.597 49.5375,319.93 48.5,318.5C 48.5,318.167 48.5,317.833 48.5,317.5C 48.423,313.785 48.7564,310.119 49.5,306.5C 52.1123,299.221 57.1123,294.221 64.5,291.5C 69.1667,290.167 73.8333,290.167 78.5,291.5 Z M 444.5,290.5 C 446.662,291.128 448.328,292.461 449.5,294.5C 450.414,297.728 450.747,301.061 450.5,304.5C 429.416,304.433 408.416,304.599 387.5,305C 386.224,307.724 385.558,310.724 385.5,314C 385.502,317.021 385.836,319.854 386.5,322.5C 411.663,323.332 436.997,323.832 462.5,324C 463.333,324.833 464.167,325.667 465,326.5C 466.134,337.598 466.634,348.765 466.5,360C 466.167,370.167 465.833,380.333 465.5,390.5C 460.416,388.138 455.082,386.805 449.5,386.5C 418.338,385.502 387.004,385.168 355.5,385.5C 355.5,364.833 355.5,344.167 355.5,323.5C 360.695,323.821 365.695,323.487 370.5,322.5C 371.816,316.987 371.816,311.32 370.5,305.5C 365.741,304.865 360.741,304.531 355.5,304.5C 355.5,299.833 355.5,295.167 355.5,290.5C 385.167,290.5 414.833,290.5 444.5,290.5 Z M 256.5,306.5 C 275.5,306.5 294.5,306.5 313.5,306.5C 313.5,316.833 313.5,327.167 313.5,337.5C 292.14,338.155 271.14,337.489 250.5,335.5C 252.341,328.626 253.674,321.626 254.5,314.5C 255.531,312.039 256.198,309.373 256.5,306.5 Z M 54.5,350.5 C 63.1335,355.331 72.1335,356.331 81.5,353.5C 83.677,353.414 85.677,352.747 87.5,351.5C 90.0731,367.081 92.2397,382.748 94,398.5C 95.616,405.732 98.7826,412.065 103.5,417.5C 104.415,419.754 105.748,421.754 107.5,423.5C 108.585,425.587 110.251,426.92 112.5,427.5C 112.833,428.5 113.5,429.167 114.5,429.5C 115.262,431.262 116.596,432.262 118.5,432.5C 119.911,434.914 121.911,436.581 124.5,437.5C 125.585,439.587 127.251,440.92 129.5,441.5C 130.911,443.914 132.911,445.581 135.5,446.5C 135.5,447.833 135.5,449.167 135.5,450.5C 130.167,450.5 124.833,450.5 119.5,450.5C 119.178,456.358 119.511,462.025 120.5,467.5C 125.5,467.5 130.5,467.5 135.5,467.5C 135.5,472.5 135.5,477.5 135.5,482.5C 116.497,482.667 97.4971,482.5 78.5,482C 74.7934,481.263 71.1268,480.429 67.5,479.5C 65.178,477.336 62.5113,475.669 59.5,474.5C 59.1667,473.5 58.5,472.833 57.5,472.5C 52.7756,466.773 47.4422,461.773 41.5,457.5C 41.5,456.167 40.8333,455.5 39.5,455.5C 36.2297,450.56 32.2297,446.227 27.5,442.5C 27.573,440.973 26.9063,439.973 25.5,439.5C 25.573,437.973 24.9063,436.973 23.5,436.5C 23.0075,434.181 22.0075,432.181 20.5,430.5C 20.2041,428.597 19.5375,426.93 18.5,425.5C 18.2122,422.061 17.5456,418.728 16.5,415.5C 16.502,409.477 16.8354,403.477 17.5,397.5C 19.5109,391.797 21.8442,386.13 24.5,380.5C 25.1667,380.5 25.5,380.167 25.5,379.5C 26.9063,379.027 27.573,378.027 27.5,376.5C 29.5869,375.415 30.9202,373.749 31.5,371.5C 32.5,371.167 33.1667,370.5 33.5,369.5C 35.5869,368.415 36.9202,366.749 37.5,364.5C 38.5,364.167 39.1667,363.5 39.5,362.5C 41.2624,361.738 42.2624,360.404 42.5,358.5C 43.8333,357.833 44.8333,356.833 45.5,355.5C 46.9063,355.027 47.573,354.027 47.5,352.5C 48.8149,351.524 50.1482,350.524 51.5,349.5C 52.4168,350.127 53.4168,350.461 54.5,350.5 Z M 452.5,404.5 C 455.678,406.009 459.011,407.342 462.5,408.5C 462.842,409.338 463.508,409.672 464.5,409.5C 465.262,411.262 466.596,412.262 468.5,412.5C 469.833,414.5 471.5,416.167 473.5,417.5C 473.5,418.167 473.833,418.5 474.5,418.5C 475.669,421.511 477.336,424.178 479.5,426.5C 482.454,435.326 483.12,444.326 481.5,453.5C 479.93,456.314 478.597,459.314 477.5,462.5C 476.11,463.899 475.11,465.566 474.5,467.5C 471.5,469.833 468.833,472.5 466.5,475.5C 464.326,475.75 462.659,476.75 461.5,478.5C 460.508,478.328 459.842,478.662 459.5,479.5C 457.214,479.595 455.214,480.262 453.5,481.5C 378.184,482.651 302.851,482.818 227.5,482C 221.852,481.006 216.519,479.173 211.5,476.5C 210.738,474.738 209.404,473.738 207.5,473.5C 207.5,472.833 207.167,472.5 206.5,472.5C 205.833,471.167 204.833,470.167 203.5,469.5C 203.262,467.596 202.262,466.262 200.5,465.5C 200.25,463.326 199.25,461.659 197.5,460.5C 192.723,446.704 193.723,433.37 200.5,420.5C 201.167,420.5 201.5,420.167 201.5,419.5C 203.262,418.738 204.262,417.404 204.5,415.5C 205.5,415.167 206.167,414.5 206.5,413.5C 208.027,413.573 209.027,412.906 209.5,411.5C 210.167,411.5 210.5,411.167 210.5,410.5C 212.674,410.25 214.341,409.25 215.5,407.5C 216.492,407.672 217.158,407.338 217.5,406.5C 222.095,405.352 226.762,404.519 231.5,404C 305.18,403.189 378.846,403.355 452.5,404.5 Z M 249.5,429.5 C 249.973,430.906 250.973,431.573 252.5,431.5C 257.825,439.199 257.825,446.866 252.5,454.5C 250.01,456.356 247.344,457.69 244.5,458.5C 241.455,458.492 238.455,458.159 235.5,457.5C 233.537,456.18 231.537,454.846 229.5,453.5C 228.492,451.456 227.492,449.456 226.5,447.5C 226.335,444.482 226.502,441.482 227,438.5C 228.193,436.114 229.36,433.78 230.5,431.5C 232.027,431.573 233.027,430.906 233.5,429.5C 238.804,426.921 244.137,426.921 249.5,429.5 Z M 293.5,427.5 C 295.456,428.492 297.456,429.492 299.5,430.5C 299.833,431.5 300.5,432.167 301.5,432.5C 301.427,434.027 302.094,435.027 303.5,435.5C 304.769,440.514 304.769,445.514 303.5,450.5C 301.477,453.52 298.81,455.854 295.5,457.5C 291.513,458.705 287.513,458.705 283.5,457.5C 282.71,456.599 281.71,455.932 280.5,455.5C 279.5,453.833 278.167,452.5 276.5,451.5C 276.204,449.597 275.537,447.93 274.5,446.5C 274.474,441.915 275.474,437.581 277.5,433.5C 279.525,431.804 281.525,430.137 283.5,428.5C 286.786,427.793 290.119,427.46 293.5,427.5 Z M 341.5,427.5 C 342.93,428.537 344.597,429.204 346.5,429.5C 347.833,431.5 349.5,433.167 351.5,434.5C 354.167,440.167 354.167,445.833 351.5,451.5C 349.5,452.833 347.833,454.5 346.5,456.5C 344.597,456.796 342.93,457.463 341.5,458.5C 338.455,458.492 335.455,458.159 332.5,457.5C 329.19,455.854 326.523,453.52 324.5,450.5C 322.755,444.202 323.422,438.202 326.5,432.5C 328.389,431.396 330.055,430.063 331.5,428.5C 334.786,427.793 338.119,427.46 341.5,427.5 Z M 394.5,429.5 C 394.973,430.906 395.973,431.573 397.5,431.5C 398.026,433.23 399.026,434.564 400.5,435.5C 401.272,439.452 401.605,443.452 401.5,447.5C 400.334,450.503 398.667,453.17 396.5,455.5C 394.973,455.427 393.973,456.094 393.5,457.5C 391.901,457.232 390.568,457.566 389.5,458.5C 386.455,458.492 383.455,458.159 380.5,457.5C 375.612,455.288 372.612,451.621 371.5,446.5C 371.46,443.119 371.793,439.786 372.5,436.5C 377.859,428.159 385.193,425.825 394.5,429.5 Z M 438.5,427.5 C 449.412,432.216 452.745,440.216 448.5,451.5C 446.5,452.833 444.833,454.5 443.5,456.5C 438.603,458.548 433.603,458.881 428.5,457.5C 416.511,447.882 416.511,438.215 428.5,428.5C 431.786,427.793 435.119,427.46 438.5,427.5 Z"/></g>
<g><path style="opacity:0.027" fill="#d1d1d1" d="M 132.5,4.5 C 134.027,4.42702 135.027,5.09368 135.5,6.5C 133.973,6.57298 132.973,5.90632 132.5,4.5 Z"/></g>
<g><path style="opacity:0.024" fill="#c9c9c9" d="M 135.5,6.5 C 137.404,6.73758 138.738,7.73758 139.5,9.5C 137.596,9.26242 136.262,8.26242 135.5,6.5 Z"/></g>
<g><path style="opacity:0.604" fill="#919191" d="M 90.5,5.5 C 88.7607,8.24269 86.4274,10.2427 83.5,11.5C 85.2393,8.75731 87.5726,6.75731 90.5,5.5 Z"/></g>
<g><path style="opacity:0.698" fill="#a0a0a0" d="M 139.5,9.5 C 142.243,11.2393 144.243,13.5726 145.5,16.5C 142.757,14.7607 140.757,12.4274 139.5,9.5 Z"/></g>
<g><path style="opacity:0.565" fill="#959595" d="M 83.5,11.5 C 82.9202,13.7488 81.5869,15.4154 79.5,16.5C 80.0798,14.2512 81.4131,12.5846 83.5,11.5 Z"/></g>
<g><path style="opacity:0.69" fill="#8d8d8d" d="M 117.5,16.5 C 119.698,16.1201 121.365,16.7868 122.5,18.5C 120.597,18.2041 118.93,17.5375 117.5,16.5 Z"/></g>
<g><path style="opacity:0.259" fill="#a7a7a7" d="M 117.5,16.5 C 110.709,15.8092 104.376,17.1426 98.5,20.5C 100.428,18.5259 102.761,17.0259 105.5,16C 109.689,15.1881 113.689,15.3547 117.5,16.5 Z"/></g>
<g><path style="opacity:0.455" fill="#8d8d8d" d="M 79.5,16.5 C 79.573,18.0269 78.9063,19.0269 77.5,19.5C 77.427,17.9731 78.0937,16.9731 79.5,16.5 Z"/></g>
<g><path style="opacity:0.341" fill="#b4b4b4" d="M 145.5,16.5 C 146.906,16.9731 147.573,17.9731 147.5,19.5C 146.094,19.0269 145.427,18.0269 145.5,16.5 Z"/></g>
<g><path style="opacity:0.757" fill="#898989" d="M 126.5,20.5 C 128.833,20.8333 130.167,22.1667 130.5,24.5C 128.833,23.5 127.5,22.1667 126.5,20.5 Z"/></g>
<g><path style="opacity:0.302" fill="#afafaf" d="M 149.5,20.5 C 151.674,20.7497 153.341,21.7497 154.5,23.5C 152.326,23.2503 150.659,22.2503 149.5,20.5 Z"/></g>
<g><path style="opacity:0.094" fill="#c0c0c0" d="M 97.5,21.5 C 96.8333,22.8333 95.8333,23.8333 94.5,24.5C 94.5,22.5 95.5,21.5 97.5,21.5 Z"/></g>
<g><path style="opacity:0.18" fill="#c5c5c5" d="M 131.5,25.5 C 133.746,27.6489 135.246,30.3156 136,33.5C 136.667,37.5 136.667,41.5 136,45.5C 135.768,46.7375 135.268,47.7375 134.5,48.5C 136.459,40.4182 135.459,32.7515 131.5,25.5 Z"/></g>
<g><path style="opacity:0.086" fill="#d4d4d4" d="M 188.5,42.5 C 190.027,42.427 191.027,43.0937 191.5,44.5C 189.973,44.573 188.973,43.9063 188.5,42.5 Z"/></g>
<g><path style="opacity:0.451" fill="#8f8f8f" d="M 156.5,43.5 C 158.027,43.427 159.027,44.0937 159.5,45.5C 157.973,45.573 156.973,44.9063 156.5,43.5 Z"/></g>
<g><path style="opacity:0.153" fill="#c6c6c6" d="M 193.5,45.5 C 195.674,45.7497 197.341,46.7497 198.5,48.5C 196.326,48.2503 194.659,47.2503 193.5,45.5 Z"/></g>
<g><path style="opacity:0.467" fill="#8e8e8e" d="M 163.5,47.5 C 165.027,47.427 166.027,48.0937 166.5,49.5C 164.973,49.573 163.973,48.9063 163.5,47.5 Z"/></g>
<g><path style="opacity:0.882" fill="#808080" d="M 89.5,46.5 C 90.4918,48.4561 91.4918,50.4561 92.5,52.5C 90.0246,51.3126 89.0246,49.3126 89.5,46.5 Z"/></g>
<g><path style="opacity:0.184" fill="#c2c2c2" d="M 200.5,49.5 C 202.674,49.7497 204.341,50.7497 205.5,52.5C 203.326,52.2503 201.659,51.2503 200.5,49.5 Z"/></g>
<g><path style="opacity:0.467" fill="#8f8f8f" d="M 170.5,51.5 C 172.027,51.427 173.027,52.0937 173.5,53.5C 171.973,53.573 170.973,52.9063 170.5,51.5 Z"/></g>
<g><path style="opacity:0.502" fill="#b6b6b6" d="M 132.5,52.5 C 132.262,54.4044 131.262,55.7377 129.5,56.5C 129.738,54.5956 130.738,53.2623 132.5,52.5 Z"/></g>
<g><path style="opacity:0.294" fill="#c2c2c2" d="M 92.5,52.5 C 93.9063,52.9731 94.573,53.9731 94.5,55.5C 93.0937,55.0269 92.427,54.0269 92.5,52.5 Z"/></g>
<g><path style="opacity:0.22" fill="#bcbcbc" d="M 207.5,53.5 C 209.674,53.7497 211.341,54.7497 212.5,56.5C 210.326,56.2503 208.659,55.2503 207.5,53.5 Z"/></g>
<g><path style="opacity:0.039" fill="#b2b2b2" d="M 154.5,42.5 C 152.514,47.2536 151.348,52.2536 151,57.5C 155.768,61.7599 159.934,66.4266 163.5,71.5C 158.188,66.8544 153.188,61.8544 148.5,56.5C 150.882,51.7769 151.882,46.7769 151.5,41.5C 152.791,41.2627 153.791,41.596 154.5,42.5 Z"/></g>
<g><path style="opacity:0.451" fill="#929292" d="M 177.5,55.5 C 179.027,55.427 180.027,56.0937 180.5,57.5C 178.973,57.573 177.973,56.9063 177.5,55.5 Z"/></g>
<g><path style="opacity:0.008" fill="#cbcbcb" d="M 96.5,57.5 C 98.4044,57.7376 99.7377,58.7376 100.5,60.5C 98.5956,60.2624 97.2623,59.2624 96.5,57.5 Z"/></g>
<g><path style="opacity:0.482" fill="#a5a5a5" d="M 128.5,57.5 C 127.198,59.8218 125.198,61.1551 122.5,61.5C 124.147,59.6736 126.147,58.3403 128.5,57.5 Z"/></g>
<g><path style="opacity:0.271" fill="#b6b6b6" d="M 214.5,57.5 C 216.674,57.7497 218.341,58.7497 219.5,60.5C 217.326,60.2503 215.659,59.2503 214.5,57.5 Z"/></g>
<g><path style="opacity:0.341" fill="#aaaaaa" d="M 182.5,58.5 C 184.027,58.427 185.027,59.0937 185.5,60.5C 183.973,60.573 182.973,59.9063 182.5,58.5 Z"/></g>
<g><path style="opacity:0.035" fill="#c3c3c3" d="M 102.5,61.5 C 105.373,61.8023 108.039,62.469 110.5,63.5C 109.5,63.5 108.5,63.5 107.5,63.5C 105.447,63.5979 103.78,62.9313 102.5,61.5 Z"/></g>
<g><path style="opacity:0.298" fill="#b2b2b2" d="M 221.5,61.5 C 223.674,61.7497 225.341,62.7497 226.5,64.5C 224.326,64.2503 222.659,63.2503 221.5,61.5 Z"/></g>
<g><path style="opacity:0.659" fill="#636363" d="M 122.5,61.5 C 121.319,63.0672 119.653,63.9005 117.5,64C 113.973,64.8075 110.64,64.6408 107.5,63.5C 108.5,63.5 109.5,63.5 110.5,63.5C 114.524,62.9619 118.524,62.2952 122.5,61.5 Z"/></g>
<g><path style="opacity:0.31" fill="#afafaf" d="M 189.5,62.5 C 191.027,62.427 192.027,63.0937 192.5,64.5C 190.973,64.573 189.973,63.9063 189.5,62.5 Z"/></g>
<g><path style="opacity:0.439" fill="#939393" d="M 72.5,34.5 C 72.5281,45.6939 71.8614,56.6939 70.5,67.5C 70.4719,56.3061 71.1386,45.3061 72.5,34.5 Z"/></g>
<g><path style="opacity:0.224" fill="#bdbdbd" d="M 194.5,65.5 C 196.674,65.7497 198.341,66.7497 199.5,68.5C 197.326,68.2503 195.659,67.2503 194.5,65.5 Z"/></g>
<g><path style="opacity:0.075" fill="#cecece" d="M 137.5,71.5 C 138.251,70.4265 139.251,70.2599 140.5,71C 144.704,75.0356 148.704,79.2022 152.5,83.5C 147.5,79.5 142.5,75.5 137.5,71.5 Z"/></g>
<g><path style="opacity:0.169" fill="#c1c1c1" d="M 201.5,69.5 C 203.674,69.7497 205.341,70.7497 206.5,72.5C 204.326,72.2503 202.659,71.2503 201.5,69.5 Z"/></g>
<g><path style="opacity:0.518" fill="#a0a0a0" d="M 136.5,72.5 C 135.976,74.3057 135.309,75.9724 134.5,77.5C 134.077,75.2188 134.744,73.5521 136.5,72.5 Z"/></g>
<g><path style="opacity:0.133" fill="#c7c7c7" d="M 208.5,73.5 C 210.674,73.7497 212.341,74.7497 213.5,76.5C 211.326,76.2503 209.659,75.2503 208.5,73.5 Z"/></g>
<g><path style="opacity:0.098" fill="#d0d0d0" d="M 91.5,74.5 C 93.153,74.6596 94.4863,75.3263 95.5,76.5C 93.6203,76.7709 92.287,76.1042 91.5,74.5 Z"/></g>
<g><path style="opacity:0.902" fill="#797979" d="M 246.5,75.5 C 247.71,75.9321 248.71,76.5987 249.5,77.5C 247.821,77.7148 246.821,77.0481 246.5,75.5 Z"/></g>
<g><path style="opacity:0.043" fill="#c1c1c1" d="M 97.5,77.5 C 99.8984,77.2594 101.898,77.9261 103.5,79.5C 101.102,79.7406 99.1016,79.0739 97.5,77.5 Z"/></g>
<g><path style="opacity:0.592" fill="#ababab" d="M 103.5,79.5 C 108.167,79.5 112.833,79.5 117.5,79.5C 117.768,81.099 117.434,82.4324 116.5,83.5C 116.935,80.3873 115.935,79.7207 113.5,81.5C 109.998,80.9889 106.665,80.3222 103.5,79.5 Z"/></g>
<g><path style="opacity:0.176" fill="#c5c5c5" d="M 217.5,78.5 C 219.027,78.427 220.027,79.0937 220.5,80.5C 218.973,80.573 217.973,79.9063 217.5,78.5 Z"/></g>
<g><path style="opacity:0.929" fill="#767676" d="M 253.5,79.5 C 254.71,79.9321 255.71,80.5987 256.5,81.5C 254.821,81.7148 253.821,81.0481 253.5,79.5 Z"/></g>
<g><path style="opacity:0.58" fill="#b0b0b0" d="M 175.5,82.5 C 185.888,91.8864 195.554,101.886 204.5,112.5C 194.112,103.114 184.446,93.1136 175.5,82.5 Z"/></g>
<g><path style="opacity:0.318" fill="#a9a9a9" d="M 226.5,83.5 C 228.027,83.427 229.027,84.0937 229.5,85.5C 227.973,85.573 226.973,84.9063 226.5,83.5 Z"/></g>
<g><path style="opacity:0.055" fill="#d8d8d8" d="M 260.5,83.5 C 262.027,83.427 263.027,84.0937 263.5,85.5C 261.973,85.573 260.973,84.9063 260.5,83.5 Z"/></g>
<g><path style="opacity:0.188" fill="#afafaf" d="M 91.5,74.5 C 89.9826,74.4894 88.8159,73.8228 88,72.5C 87.8285,79.6787 87.3285,86.6787 86.5,93.5C 86.5,86.1667 86.5,78.8333 86.5,71.5C 88.9328,71.2729 90.5994,72.2729 91.5,74.5 Z"/></g>
<g><path style="opacity:0.141" fill="#c8c8c8" d="M 265.5,86.5 C 267.674,86.7497 269.341,87.7497 270.5,89.5C 268.326,89.2503 266.659,88.2503 265.5,86.5 Z"/></g>
<g><path style="opacity:0.498" fill="#898989" d="M 235.5,88.5 C 237.027,88.427 238.027,89.0937 238.5,90.5C 236.973,90.573 235.973,89.9063 235.5,88.5 Z"/></g>
<g><path style="opacity:0.933" fill="#606060" d="M 132.5,89.5 C 132.247,93.0399 131.581,96.3733 130.5,99.5C 130.335,96.4816 130.502,93.4816 131,90.5C 131.383,89.944 131.883,89.6107 132.5,89.5 Z"/></g>
<g><path style="opacity:0.502" fill="#898989" d="M 242.5,92.5 C 244.027,92.427 245.027,93.0937 245.5,94.5C 243.973,94.573 242.973,93.9063 242.5,92.5 Z"/></g>
<g><path style="opacity:0.094" fill="#d1d1d1" d="M 272.5,90.5 C 275.331,91.0787 277.664,92.412 279.5,94.5C 276.669,93.9213 274.336,92.588 272.5,90.5 Z"/></g>
<g><path style="opacity:0.212" fill="#c1c1c1" d="M 279.5,94.5 C 281.674,94.7497 283.341,95.7497 284.5,97.5C 282.326,97.2503 280.659,96.2503 279.5,94.5 Z"/></g>
<g><path style="opacity:0.482" fill="#8c8c8c" d="M 249.5,96.5 C 251.027,96.427 252.027,97.0937 252.5,98.5C 250.973,98.573 249.973,97.9063 249.5,96.5 Z"/></g>
<g><path style="opacity:0.31" fill="#b1b1b1" d="M 284.5,97.5 C 287.331,98.0787 289.664,99.412 291.5,101.5C 288.669,100.921 286.336,99.588 284.5,97.5 Z"/></g>
<g><path style="opacity:0.361" fill="#a7a7a7" d="M 254.5,99.5 C 256.027,99.427 257.027,100.094 257.5,101.5C 255.973,101.573 254.973,100.906 254.5,99.5 Z"/></g>
<g><path style="opacity:0.961" fill="#616161" d="M 130.5,100.5 C 130.451,104.078 129.785,107.411 128.5,110.5C 128.335,107.482 128.502,104.482 129,101.5C 129.383,100.944 129.883,100.611 130.5,100.5 Z"/></g>
<g><path style="opacity:0.353" fill="#a3a3a3" d="M 291.5,101.5 C 293.674,101.75 295.341,102.75 296.5,104.5C 294.326,104.25 292.659,103.25 291.5,101.5 Z"/></g>
<g><path style="opacity:0.329" fill="#acacac" d="M 261.5,103.5 C 263.027,103.427 264.027,104.094 264.5,105.5C 262.973,105.573 261.973,104.906 261.5,103.5 Z"/></g>
<g><path style="opacity:0.004" fill="#cfcfcf" d="M 173.5,104.5 C 180.5,110.833 187.167,117.5 193.5,124.5C 192.761,124.631 192.094,124.464 191.5,124C 184.904,117.91 178.904,111.41 173.5,104.5 Z"/></g>
<g><path style="opacity:0.231" fill="#b9b9b9" d="M 266.5,106.5 C 268.674,106.75 270.341,107.75 271.5,109.5C 269.326,109.25 267.659,108.25 266.5,106.5 Z"/></g>
<g><path style="opacity:0.804" fill="#878787" d="M 302.5,107.5 C 304.23,108.026 305.564,109.026 306.5,110.5C 304.368,110.446 303.035,109.446 302.5,107.5 Z"/></g>
<g><path style="opacity:0.18" fill="#bfbfbf" d="M 273.5,110.5 C 275.674,110.75 277.341,111.75 278.5,113.5C 276.326,113.25 274.659,112.25 273.5,110.5 Z"/></g>
<g><path style="opacity:0.855" fill="#686868" d="M 112.5,106.5 C 112.664,109.187 112.497,111.854 112,114.5C 111.722,115.416 111.222,116.082 110.5,116.5C 110.753,112.96 111.419,109.627 112.5,106.5 Z"/></g>
<g><path style="opacity:0.141" fill="#c3c3c3" d="M 280.5,114.5 C 282.674,114.75 284.341,115.75 285.5,117.5C 283.326,117.25 281.659,116.25 280.5,114.5 Z"/></g>
<g><path style="opacity:0.851" fill="#8a8a8a" d="M 314.5,117.5 C 317.243,119.239 319.243,121.573 320.5,124.5C 317.757,122.761 315.757,120.427 314.5,117.5 Z"/></g>
<g><path style="opacity:0.11" fill="#d6d6d6" d="M 287.5,118.5 C 289.027,118.427 290.027,119.094 290.5,120.5C 288.973,120.573 287.973,119.906 287.5,118.5 Z"/></g>
<g><path style="opacity:0.314" fill="#b0b0b0" d="M 294.5,122.5 C 296.027,122.427 297.027,123.094 297.5,124.5C 295.973,124.573 294.973,123.906 294.5,122.5 Z"/></g>
<g><path style="opacity:0.831" fill="#6f6f6f" d="M 110.5,117.5 C 110.664,120.187 110.497,122.854 110,125.5C 109.722,126.416 109.222,127.082 108.5,127.5C 108.753,123.96 109.419,120.627 110.5,117.5 Z"/></g>
<g><path style="opacity:0.584" fill="#aeaeae" d="M 216.5,123.5 C 221.965,128.464 227.298,133.63 232.5,139C 235.174,138.847 237.84,138.347 240.5,137.5C 238.162,139.504 235.495,140.671 232.5,141C 226.569,135.576 221.236,129.742 216.5,123.5 Z"/></g>
<g><path style="opacity:0.749" fill="#a6a6a6" d="M 297.5,124.5 C 300.833,125.833 303.167,128.167 304.5,131.5C 301.833,129.5 299.5,127.167 297.5,124.5 Z"/></g>
<g><path style="opacity:0.416" fill="#8a8a8a" d="M 70.5,80.5 C 69.4428,145.373 67.1095,210.04 63.5,274.5C 65.4712,209.662 67.8045,144.995 70.5,80.5 Z"/></g>
<g><path style="opacity:0.208" fill="#cbcbcb" d="M 320.5,124.5 C 321.906,124.973 322.573,125.973 322.5,127.5C 321.094,127.027 320.427,126.027 320.5,124.5 Z"/></g>
<g><path style="opacity:0.145" fill="#c5c5c5" d="M 305.5,132.5 C 306.906,132.973 307.573,133.973 307.5,135.5C 306.094,135.027 305.427,134.027 305.5,132.5 Z"/></g>
<g><path style="opacity:0.808" fill="#8e8e8e" d="M 108.5,128.5 C 106.335,147.164 103.002,165.498 98.5,183.5C 101.312,164.949 104.646,146.616 108.5,128.5 Z"/></g>
<g><path style="opacity:0.047" fill="#b7b7b7" d="M 263.5,139.5 C 255.964,137.742 248.297,137.075 240.5,137.5C 248.43,134.639 256.096,135.306 263.5,139.5 Z"/></g>
<g><path style="opacity:0.878" fill="#868686" d="M 325.5,133.5 C 326.931,134.78 327.598,136.447 327.5,138.5C 325.787,137.365 325.12,135.698 325.5,133.5 Z"/></g>
<g><path style="opacity:0.298" fill="#aeaeae" d="M 263.5,139.5 C 265.674,139.75 267.341,140.75 268.5,142.5C 266.326,142.25 264.659,141.25 263.5,139.5 Z"/></g>
<g><path style="opacity:0.008" fill="#bebebe" d="M 268.5,142.5 C 271.833,143.833 274.167,146.167 275.5,149.5C 272.833,147.5 270.5,145.167 268.5,142.5 Z"/></g>
<g><path style="opacity:0.047" fill="#b9b9b9" d="M 327.5,138.5 C 328.924,140.515 329.59,142.848 329.5,145.5C 327.837,143.562 327.171,141.228 327.5,138.5 Z"/></g>
<g><path style="opacity:0.004" fill="#d1d1d1" d="M 215.5,146.5 C 221.922,149.397 222.922,153.397 218.5,158.5C 218.472,156.418 219.139,154.584 220.5,153C 218.21,151.223 216.543,149.056 215.5,146.5 Z"/></g>
<g><path style="opacity:0.365" fill="#a1a1a1" d="M 275.5,149.5 C 276.906,149.973 277.573,150.973 277.5,152.5C 276.094,152.027 275.427,151.027 275.5,149.5 Z"/></g>
<g><path style="opacity:0.019" fill="#f6f6f6" d="M 329.5,145.5 C 330.314,147.631 330.814,149.964 331,152.5C 331.5,187.165 331.667,221.832 331.5,256.5C 332.791,256.263 333.791,256.596 334.5,257.5C 333.167,257.5 331.833,257.5 330.5,257.5C 330.782,220.153 330.449,182.82 329.5,145.5 Z"/></g>
<g><path style="opacity:0.118" fill="#b4b4b4" d="M 123.5,139.5 C 117.504,179.135 110.504,218.469 102.5,257.5C 108.495,217.87 115.495,178.537 123.5,139.5 Z"/></g>
<g><path style="opacity:0.212" fill="#c0c0c0" d="M 257.5,182.5 C 263.126,177.791 265.293,171.791 264,164.5C 257.967,153.099 249.467,150.766 238.5,157.5C 244.419,151.926 251.086,151.093 258.5,155C 265.983,161.614 267.483,169.448 263,178.5C 261.549,180.464 259.716,181.797 257.5,182.5 Z"/></g>
<g><path style="opacity:0.153" fill="#cecece" d="M 277.5,152.5 C 278.906,152.973 279.573,153.973 279.5,155.5C 278.094,155.027 277.427,154.027 277.5,152.5 Z"/></g>
<g><path style="opacity:0.522" fill="#808080" d="M 307.5,135.5 C 310.974,139.453 313.14,144.12 314,149.5C 314.831,185.669 314.664,221.669 313.5,257.5C 313.5,257.167 313.5,256.833 313.5,256.5C 313.667,222.498 313.5,188.498 313,154.5C 312.274,147.824 310.441,141.491 307.5,135.5 Z"/></g>
<g><path style="opacity:0.216" fill="#c4c4c4" d="M 238.5,157.5 C 234.054,163.74 233.388,170.406 236.5,177.5C 234.14,175.089 233.14,172.089 233.5,168.5C 233.3,163.904 234.967,160.237 238.5,157.5 Z"/></g>
<g><path style="opacity:0.175" fill="#c0c0c0" d="M 279.5,155.5 C 281.867,159.401 282.867,163.734 282.5,168.5C 282.823,174.898 281.156,180.564 277.5,185.5C 279.552,180.177 280.885,174.677 281.5,169C 280.934,164.475 280.268,159.975 279.5,155.5 Z"/></g>
<g><path style="opacity:0.102" fill="#c7c7c7" d="M 218.5,158.5 C 216.561,167.84 217.561,176.84 221.5,185.5C 219.519,182.872 218.019,179.872 217,176.5C 216.333,171.5 216.333,166.5 217,161.5C 217.232,160.263 217.732,159.263 218.5,158.5 Z"/></g>
<g><path style="opacity:0.494" fill="#b5b5b5" d="M 236.5,177.5 C 238.5,178.833 240.167,180.5 241.5,182.5C 238.833,181.833 237.167,180.167 236.5,177.5 Z"/></g>
<g><path style="opacity:0.514" fill="#8b8b8b" d="M 241.5,182.5 C 246.14,184.182 250.807,184.516 255.5,183.5C 251.413,185.971 247.08,186.137 242.5,184C 241.944,183.617 241.611,183.117 241.5,182.5 Z"/></g>
<g><path style="opacity:0.035" fill="#d0d0d0" d="M 221.5,185.5 C 222.906,185.973 223.573,186.973 223.5,188.5C 222.094,188.027 221.427,187.027 221.5,185.5 Z"/></g>
<g><path style="opacity:0.031" fill="#d0d0d0" d="M 277.5,185.5 C 277.573,187.027 276.906,188.027 275.5,188.5C 275.427,186.973 276.094,185.973 277.5,185.5 Z"/></g>
<g><path style="opacity:0.004" fill="#d7d7d7" d="M 223.5,188.5 C 225.5,189.833 227.167,191.5 228.5,193.5C 225.833,192.833 224.167,191.167 223.5,188.5 Z"/></g>
<g><path style="opacity:0.024" fill="#d8d8d8" d="M 274.5,189.5 C 274.167,191.833 272.833,193.167 270.5,193.5C 271.5,191.833 272.833,190.5 274.5,189.5 Z"/></g>
<g><path style="opacity:0.675" fill="#9a9a9a" d="M 228.5,193.5 C 230.404,193.738 231.738,194.738 232.5,196.5C 230.596,196.262 229.262,195.262 228.5,193.5 Z"/></g>
<g><path style="opacity:0.059" fill="#d0d0d0" d="M 269.5,194.5 C 269.027,195.906 268.027,196.573 266.5,196.5C 266.973,195.094 267.973,194.427 269.5,194.5 Z"/></g>
<g><path style="opacity:0.204" fill="#c9c9c9" d="M 97.5,188.5 C 97.4524,194.46 96.4524,200.127 94.5,205.5C 94.8828,199.6 95.8828,193.933 97.5,188.5 Z"/></g>
<g><path style="opacity:0.122" fill="#cfcfcf" d="M 232.5,196.5 C 234.819,196.992 236.819,197.992 238.5,199.5C 235.911,199.539 233.911,198.539 232.5,196.5 Z"/></g>
<g><path style="opacity:0.162" fill="#d2d2d2" d="M 238.5,199.5 C 239.5,199.5 240.5,199.5 241.5,199.5C 241.5,218.833 241.5,238.167 241.5,257.5C 237.821,257.724 234.154,258.058 230.5,258.5C 233.507,256.825 236.84,256.159 240.5,256.5C 241.134,237.265 240.468,218.265 238.5,199.5 Z"/></g>
<g><path style="opacity:0.163" fill="#d8d8d8" d="M 266.5,196.5 C 264.682,198.567 262.349,199.9 259.5,200.5C 258.5,219.155 258.167,237.821 258.5,256.5C 276.833,256.5 295.167,256.5 313.5,256.5C 313.5,256.833 313.5,257.167 313.5,257.5C 294.833,257.5 276.167,257.5 257.5,257.5C 257.167,238.155 257.5,218.822 258.5,199.5C 261.188,198.487 263.854,197.487 266.5,196.5 Z"/></g>
<g><path style="opacity:0.125" fill="#d7d7d7" d="M 94.5,205.5 C 94.7489,209.458 94.0823,213.124 92.5,216.5C 92.4299,212.575 93.0966,208.909 94.5,205.5 Z"/></g>
<g><path style="opacity:0.098" fill="#d8d8d8" d="M 92.5,216.5 C 90.1001,234.062 87.1001,251.396 83.5,268.5C 85.4961,250.869 88.4961,233.536 92.5,216.5 Z"/></g>
<g><path style="opacity:0.376" fill="#aaaaaa" d="M 83.5,187.5 C 83.1872,216.509 82.5205,245.509 81.5,274.5C 80.834,269.678 80.5007,264.678 80.5,259.5C 81.1045,235.324 82.1045,211.324 83.5,187.5 Z"/></g>
<g><path style="opacity:0.278" fill="#b9b9b9" d="M 334.5,257.5 C 338.836,257.837 342.503,259.504 345.5,262.5C 341.646,261.07 337.979,259.403 334.5,257.5 Z"/></g>
<g><path style="opacity:0.71" fill="#8e8e8e" d="M 347.5,264.5 C 349.262,265.262 350.262,266.596 350.5,268.5C 348.738,267.738 347.738,266.404 347.5,264.5 Z"/></g>
<g><path style="opacity:0.384" fill="#9b9b9b" d="M 102.5,258.5 C 101.989,264.049 100.989,269.383 99.5,274.5C 99.6706,269.804 100.171,265.137 101,260.5C 101.278,259.584 101.778,258.918 102.5,258.5 Z"/></g>
<g><path style="opacity:0.294" fill="#b1b1b1" d="M 350.5,268.5 C 351.906,268.973 352.573,269.973 352.5,271.5C 351.094,271.027 350.427,270.027 350.5,268.5 Z"/></g>
<g><path style="opacity:0.058" fill="#ececec" d="M 352.5,271.5 C 383.264,272.159 413.931,272.826 444.5,273.5C 413.833,273.5 383.167,273.5 352.5,273.5C 352.5,272.833 352.5,272.167 352.5,271.5 Z"/></g>
<g><path style="opacity:0.298" fill="#adadad" d="M 334.5,275.5 C 301.863,274.355 269.196,274.188 236.5,275C 234.333,275.833 232.833,277.333 232,279.5C 229.208,292.309 226.375,304.976 223.5,317.5C 224.994,303.528 227.827,289.862 232,276.5C 232.903,275.299 234.069,274.465 235.5,274C 268.167,273.333 300.833,273.333 333.5,274C 334.056,274.383 334.389,274.883 334.5,275.5 Z"/></g>
<g><path style="opacity:0.706" fill="#4e4e4e" d="M 352.5,273.5 C 383.167,273.5 413.833,273.5 444.5,273.5C 447.495,273.294 450.162,273.96 452.5,275.5C 419.02,274.861 385.687,274.194 352.5,273.5 Z"/></g>
<g><path style="opacity:0.922" fill="#606060" d="M 63.5,274.5 C 60.1996,276.642 56.533,277.975 52.5,278.5C 55.6599,276 59.3266,274.667 63.5,274.5 Z"/></g>
<g><path style="opacity:0.714" fill="#767676" d="M 52.5,278.5 C 51.7377,280.262 50.4044,281.262 48.5,281.5C 49.2623,279.738 50.5956,278.738 52.5,278.5 Z"/></g>
<g><path style="opacity:0.741" fill="#878787" d="M 459.5,279.5 C 460.906,279.973 461.573,280.973 461.5,282.5C 460.094,282.027 459.427,281.027 459.5,279.5 Z"/></g>
<g><path style="opacity:0.384" fill="#9b9b9b" d="M 99.5,275.5 C 99.4249,278.206 99.0916,280.873 98.5,283.5C 97.254,280.707 97.5873,278.04 99.5,275.5 Z"/></g>
<g><path style="opacity:0.745" fill="#8d8d8d" d="M 102.5,287.5 C 104.262,288.262 105.262,289.596 105.5,291.5C 103.738,290.738 102.738,289.404 102.5,287.5 Z"/></g>
<g><path style="opacity:0.4" fill="#a6a6a6" d="M 78.5,291.5 C 73.8333,290.167 69.1667,290.167 64.5,291.5C 66.6789,290.074 69.1789,289.408 72,289.5C 74.5437,289.336 76.7103,290.003 78.5,291.5 Z"/></g>
<g><path style="opacity:0.298" fill="#b6b6b6" d="M 444.5,290.5 C 414.833,290.5 385.167,290.5 355.5,290.5C 355.5,295.167 355.5,299.833 355.5,304.5C 360.741,304.531 365.741,304.865 370.5,305.5C 371.816,311.32 371.816,316.987 370.5,322.5C 365.167,322.5 359.833,322.5 354.5,322.5C 359.64,321.512 364.974,321.179 370.5,321.5C 370.5,316.5 370.5,311.5 370.5,306.5C 365.167,306.5 359.833,306.5 354.5,306.5C 354.5,300.833 354.5,295.167 354.5,289.5C 384.671,289.169 414.671,289.502 444.5,290.5 Z"/></g>
<g><path style="opacity:1" fill="#060606" d="M 242.5,290.5 C 271.5,290.5 300.5,290.5 329.5,290.5C 329.5,311.5 329.5,332.5 329.5,353.5C 297.833,353.5 266.167,353.5 234.5,353.5C 234.434,344.148 234.768,334.815 235.5,325.5C 237.198,313.677 239.531,302.011 242.5,290.5 Z M 256.5,306.5 C 275.5,306.5 294.5,306.5 313.5,306.5C 313.5,316.833 313.5,327.167 313.5,337.5C 292.14,338.155 271.14,337.489 250.5,335.5C 252.341,328.626 253.674,321.626 254.5,314.5C 255.531,312.039 256.198,309.373 256.5,306.5 Z"/></g>
<g><path style="opacity:0.733" fill="#767676" d="M 39.5,290.5 C 39.2624,292.404 38.2624,293.738 36.5,294.5C 36.7376,292.596 37.7376,291.262 39.5,290.5 Z"/></g>
<g><path style="opacity:0.047" fill="#d9d9d9" d="M 230.5,258.5 C 223.855,261.647 219.021,266.647 216,273.5C 213.046,286.261 210.213,298.927 207.5,311.5C 209.035,298.322 211.535,285.322 215,272.5C 217.847,265.148 223.014,260.481 230.5,258.5 Z"/></g>
<g><path style="opacity:0.773" fill="#8b8b8b" d="M 84.5,293.5 C 86.4044,293.738 87.7377,294.738 88.5,296.5C 86.5956,296.262 85.2623,295.262 84.5,293.5 Z"/></g>
<g><path style="opacity:0.298" fill="#b9b9b9" d="M 105.5,291.5 C 106.906,291.973 107.573,292.973 107.5,294.5C 106.094,294.027 105.427,293.027 105.5,291.5 Z"/></g>
<g><path style="opacity:0.196" fill="#c7c7c7" d="M 107.5,294.5 C 109.539,295.911 110.539,297.911 110.5,300.5C 108.992,298.819 107.992,296.819 107.5,294.5 Z"/></g>
<g><path style="opacity:0.012" fill="#cacaca" d="M 88.5,296.5 C 90.2624,297.262 91.2624,298.596 91.5,300.5C 89.7376,299.738 88.7376,298.404 88.5,296.5 Z"/></g>
<g><path style="opacity:0.791" fill="#414141" d="M 464.5,286.5 C 465.793,287.842 466.626,289.509 467,291.5C 467.499,296.489 467.666,301.489 467.5,306.5C 467.5,306.833 467.5,307.167 467.5,307.5C 466.755,300.596 465.755,293.596 464.5,286.5 Z"/></g>
<g><path style="opacity:0.808" fill="#838383" d="M 34.5,298.5 C 34.5905,301.152 33.9238,303.485 32.5,305.5C 32.4095,302.848 33.0762,300.515 34.5,298.5 Z"/></g>
<g><path style="opacity:0.471" fill="#a3a3a3" d="M 449.5,294.5 C 451.423,298.029 452.089,302.029 451.5,306.5C 429.833,306.5 408.167,306.5 386.5,306.5C 386.5,311.5 386.5,316.5 386.5,321.5C 411.339,321.169 436.006,321.502 460.5,322.5C 435.833,322.5 411.167,322.5 386.5,322.5C 385.836,319.854 385.502,317.021 385.5,314C 385.558,310.724 386.224,307.724 387.5,305C 408.416,304.599 429.416,304.433 450.5,304.5C 450.747,301.061 450.414,297.728 449.5,294.5 Z"/></g>
<g><path style="opacity:0.937" fill="#5d5d5d" d="M 256.5,306.5 C 256.198,309.373 255.531,312.039 254.5,314.5C 253.964,311.302 254.631,308.635 256.5,306.5 Z"/></g>
<g><path style="opacity:0.616" fill="#9d9d9d" d="M 467.5,306.5 C 469.882,307.351 471.882,308.684 473.5,310.5C 471.181,310.008 469.181,309.008 467.5,307.5C 467.5,307.167 467.5,306.833 467.5,306.5 Z"/></g>
<g><path style="opacity:0.839" fill="#565656" d="M 49.5,306.5 C 48.7564,310.119 48.423,313.785 48.5,317.5C 47.8418,316.207 47.5085,314.707 47.5,313C 47.336,310.456 48.0027,308.29 49.5,306.5 Z"/></g>
<g><path style="opacity:0.035" fill="#bebebe" d="M 473.5,310.5 C 476.5,311.5 478.5,313.5 479.5,316.5C 477.167,314.833 475.167,312.833 473.5,310.5 Z"/></g>
<g><path style="opacity:0.671" fill="#797979" d="M 110.5,300.5 C 112.04,302.838 112.706,305.505 112.5,308.5C 112.81,311.713 112.477,314.713 111.5,317.5C 111.553,311.804 111.22,306.138 110.5,300.5 Z"/></g>
<g><path style="opacity:0.235" fill="#c4c4c4" d="M 479.5,316.5 C 480.906,316.973 481.573,317.973 481.5,319.5C 480.094,319.027 479.427,318.027 479.5,316.5 Z"/></g>
<g><path style="opacity:0.247" fill="#bfbfbf" d="M 112.5,308.5 C 114.22,316.637 112.887,324.303 108.5,331.5C 110.127,326.988 111.127,322.321 111.5,317.5C 112.477,314.713 112.81,311.713 112.5,308.5 Z"/></g>
<g><path style="opacity:0.835" fill="#7f7f7f" d="M 48.5,318.5 C 49.5375,319.93 50.2041,321.597 50.5,323.5C 48.7868,322.365 48.1201,320.698 48.5,318.5 Z"/></g>
<g><path style="opacity:0.125" fill="#c0c0c0" d="M 91.5,300.5 C 96.1196,305.949 97.6196,312.283 96,319.5C 94.644,325.921 91.144,330.588 85.5,333.5C 95.48,323.934 97.48,312.934 91.5,300.5 Z"/></g>
<g><path style="opacity:0.435" fill="#a5a5a5" d="M 481.5,319.5 C 482.924,321.515 483.59,323.848 483.5,326.5C 482.076,324.485 481.41,322.152 481.5,319.5 Z"/></g>
<g><path style="opacity:0.8" fill="#7e7e7e" d="M 51.5,326.5 C 53.2624,327.262 54.2624,328.596 54.5,330.5C 52.7376,329.738 51.7376,328.404 51.5,326.5 Z"/></g>
<g><path style="opacity:0.212" fill="#d0d0d0" d="M 386.5,322.5 C 411.167,322.5 435.833,322.5 460.5,322.5C 463.642,322.799 465.809,324.466 467,327.5C 467.5,348.831 467.667,370.164 467.5,391.5C 461.292,390.203 455.292,388.536 449.5,386.5C 455.082,386.805 460.416,388.138 465.5,390.5C 465.833,380.333 466.167,370.167 466.5,360C 466.634,348.765 466.134,337.598 465,326.5C 464.167,325.667 463.333,324.833 462.5,324C 436.997,323.832 411.663,323.332 386.5,322.5 Z"/></g>
<g><path style="opacity:0.545" fill="#b2b2b2" d="M 85.5,333.5 C 85.0269,334.906 84.0269,335.573 82.5,335.5C 82.9731,334.094 83.9731,333.427 85.5,333.5 Z"/></g>
<g><path style="opacity:0.129" fill="#d2d2d2" d="M 60.5,334.5 C 62.153,334.66 63.4863,335.326 64.5,336.5C 62.6203,336.771 61.287,336.104 60.5,334.5 Z"/></g>
<g><path style="opacity:0.251" fill="#afafaf" d="M 107.5,333.5 C 107.573,335.027 106.906,336.027 105.5,336.5C 105.427,334.973 106.094,333.973 107.5,333.5 Z"/></g>
<g><path style="opacity:0.525" fill="#9a9a9a" d="M 64.5,336.5 C 69.5128,337.673 74.5128,337.673 79.5,336.5C 77.3655,338.033 74.8655,338.7 72,338.5C 69.1345,338.7 66.6345,338.033 64.5,336.5 Z"/></g>
<g><path style="opacity:0.243" fill="#acacac" d="M 313.5,306.5 C 314.494,316.987 314.828,327.654 314.5,338.5C 292.833,338.5 271.167,338.5 249.5,338.5C 249.263,337.209 249.596,336.209 250.5,335.5C 271.14,337.489 292.14,338.155 313.5,337.5C 313.5,327.167 313.5,316.833 313.5,306.5 Z"/></g>
<g><path style="opacity:0.24" fill="#cfcfcf" d="M 370.5,354.5 C 369.511,349.025 369.178,343.358 369.5,337.5C 380.833,337.5 392.167,337.5 403.5,337.5C 403.5,343.5 403.5,349.5 403.5,355.5C 392.321,355.828 381.321,355.495 370.5,354.5 Z"/></g>
<g><path style="opacity:1" fill="#070707" d="M 370.5,354.5 C 370.5,349.167 370.5,343.833 370.5,338.5C 381.167,338.5 391.833,338.5 402.5,338.5C 402.5,343.833 402.5,349.167 402.5,354.5C 391.833,354.5 381.167,354.5 370.5,354.5 Z"/></g>
<g><path style="opacity:0.596" fill="#9d9d9d" d="M 38.5,336.5 C 39.525,336.897 39.6917,337.563 39,338.5C 37.2962,340.373 35.4628,342.04 33.5,343.5C 34.7536,340.907 36.4202,338.573 38.5,336.5 Z"/></g>
<g><path style="opacity:0.6" fill="#969696" d="M 33.5,343.5 C 32.5806,346.089 30.914,348.089 28.5,349.5C 29.4194,346.911 31.086,344.911 33.5,343.5 Z"/></g>
<g><path style="opacity:0.42" fill="#9d9d9d" d="M 105.5,336.5 C 106.24,345.161 106.907,353.827 107.5,362.5C 105.917,355.727 104.917,348.727 104.5,341.5C 104.507,339.631 104.84,337.964 105.5,336.5 Z"/></g>
<g><path style="opacity:0.686" fill="#878787" d="M 28.5,349.5 C 27.2427,352.427 25.2427,354.761 22.5,356.5C 23.7573,353.573 25.7573,351.239 28.5,349.5 Z"/></g>
<g><path style="opacity:0.035" fill="#bdbdbd" d="M 47.5,352.5 C 47.573,354.027 46.9063,355.027 45.5,355.5C 45.427,353.973 46.0937,352.973 47.5,352.5 Z"/></g>
<g><path style="opacity:0.584" fill="#929292" d="M 54.5,350.5 C 57.6473,350.737 60.6473,351.57 63.5,353C 69.4908,353.499 75.4908,353.666 81.5,353.5C 72.1335,356.331 63.1335,355.331 54.5,350.5 Z"/></g>
<g><path style="opacity:0.69" fill="#686868" d="M 242.5,290.5 C 271.995,289.502 301.662,289.169 331.5,289.5C 331.831,311.34 331.497,333.006 330.5,354.5C 298.167,354.5 265.833,354.5 233.5,354.5C 233.5,347.833 233.5,341.167 233.5,334.5C 233.676,331.273 234.343,328.273 235.5,325.5C 234.768,334.815 234.434,344.148 234.5,353.5C 266.167,353.5 297.833,353.5 329.5,353.5C 329.5,332.5 329.5,311.5 329.5,290.5C 300.5,290.5 271.5,290.5 242.5,290.5 Z"/></g>
<g><path style="opacity:0.69" fill="#9d9d9d" d="M 418.5,337.5 C 429.505,337.333 440.505,337.5 451.5,338C 452.639,343.416 452.806,348.916 452,354.5C 440.91,355.653 429.743,355.82 418.5,355C 417.187,349.167 417.187,343.334 418.5,337.5 Z"/></g>
<g><path style="opacity:1" fill="#FFFFFF" d="M 419.5,338.5 C 429.833,338.5 440.167,338.5 450.5,338.5C 450.5,343.5 450.5,348.5 450.5,353.5C 440.167,353.5 429.833,353.5 419.5,353.5C 419.5,348.5 419.5,343.5 419.5,338.5 Z"/></g>
<g><path style="opacity:0.115" fill="#dcdcdc" d="M 233.5,334.5 C 233.5,341.167 233.5,347.833 233.5,354.5C 265.833,354.5 298.167,354.5 330.5,354.5C 298.004,355.498 265.338,355.832 232.5,355.5C 232.175,348.313 232.509,341.313 233.5,334.5 Z"/></g>
<g><path style="opacity:0.678" fill="#8d8d8d" d="M 22.5,356.5 C 20.9059,359.764 18.5725,362.431 15.5,364.5C 17.0941,361.236 19.4275,358.569 22.5,356.5 Z"/></g>
<g><path style="opacity:0.008" fill="#cdcdcd" d="M 42.5,358.5 C 42.2624,360.404 41.2624,361.738 39.5,362.5C 39.7376,360.596 40.7376,359.262 42.5,358.5 Z"/></g>
<g><path style="opacity:0.494" fill="#9f9f9f" d="M 15.5,364.5 C 15.2624,366.404 14.2624,367.738 12.5,368.5C 12.7376,366.596 13.7376,365.262 15.5,364.5 Z"/></g>
<g><path style="opacity:0.051" fill="#cccccc" d="M 37.5,364.5 C 36.9202,366.749 35.5869,368.415 33.5,369.5C 34.0798,367.251 35.4131,365.585 37.5,364.5 Z"/></g>
<g><path style="opacity:0.075" fill="#c5c5c5" d="M 31.5,371.5 C 30.9202,373.749 29.5869,375.415 27.5,376.5C 28.0798,374.251 29.4131,372.585 31.5,371.5 Z"/></g>
<g><path style="opacity:0.922" fill="#585858" d="M 196.5,367.5 C 196.664,370.187 196.497,372.854 196,375.5C 195.617,376.056 195.117,376.389 194.5,376.5C 194.676,373.273 195.343,370.273 196.5,367.5 Z"/></g>
<g><path style="opacity:0.11" fill="#d5d5d5" d="M 12.5,368.5 C 8.28668,375.593 4.62001,382.927 1.5,390.5C 3.06405,382.038 6.73072,374.705 12.5,368.5 Z"/></g>
<g><path style="opacity:0.318" fill="#afafaf" d="M 107.5,362.5 C 109.332,372.967 110.665,383.633 111.5,394.5C 109.941,391.132 109.108,387.465 109,383.5C 108.003,376.533 107.503,369.533 107.5,362.5 Z"/></g>
<g><path style="opacity:0.133" fill="#c7c7c7" d="M 27.5,376.5 C 27.573,378.027 26.9063,379.027 25.5,379.5C 25.427,377.973 26.0937,376.973 27.5,376.5 Z"/></g>
<g><path style="opacity:0.129" fill="#d3d3d3" d="M 336.5,277.5 C 337.222,277.918 337.722,278.584 338,279.5C 338.5,315.165 338.667,350.832 338.5,386.5C 302.5,386.5 266.5,386.5 230.5,386.5C 229.167,386.5 227.833,386.5 226.5,386.5C 263.33,385.502 300.33,385.168 337.5,385.5C 337.814,349.469 337.481,313.469 336.5,277.5 Z"/></g>
<g><path style="opacity:0.127" fill="#dedede" d="M 354.5,322.5 C 359.833,322.5 365.167,322.5 370.5,322.5C 365.695,323.487 360.695,323.821 355.5,323.5C 355.5,344.167 355.5,364.833 355.5,385.5C 387.004,385.168 418.338,385.502 449.5,386.5C 417.833,386.5 386.167,386.5 354.5,386.5C 354.5,365.167 354.5,343.833 354.5,322.5 Z"/></g>
<g><path style="opacity:0.361" fill="#a4a4a4" d="M 24.5,380.5 C 21.8442,386.13 19.5109,391.797 17.5,397.5C 17.932,390.979 20.2654,385.313 24.5,380.5 Z"/></g>
<g><path style="opacity:0.557" fill="#979797" d="M 226.5,386.5 C 227.833,386.5 229.167,386.5 230.5,386.5C 225.284,387.493 219.951,388.493 214.5,389.5C 218.163,387.584 222.163,386.584 226.5,386.5 Z"/></g>
<g><path style="opacity:0.263" fill="#c0c0c0" d="M 214.5,389.5 C 213.005,391.345 211.338,391.678 209.5,390.5C 211.117,389.962 212.784,389.629 214.5,389.5 Z"/></g>
<g><path style="opacity:0.169" fill="#bababa" d="M 103.5,417.5 C 98.7826,412.065 95.616,405.732 94,398.5C 92.2397,382.748 90.0731,367.081 87.5,351.5C 85.677,352.747 83.677,353.414 81.5,353.5C 83.8973,350.88 86.7306,350.213 90,351.5C 91.4794,367.564 93.4794,383.564 96,399.5C 97.6964,405.886 100.196,411.886 103.5,417.5 Z"/></g>
<g><path style="opacity:0.472" fill="#919191" d="M 193.5,381.5 C 193.666,389.174 193.5,396.841 193,404.5C 191.629,406.041 190.129,407.375 188.5,408.5C 189.031,406.456 190.198,404.789 192,403.5C 192.171,395.989 192.671,388.655 193.5,381.5 Z"/></g>
<g><path style="opacity:0.255" fill="#bebebe" d="M 452.5,404.5 C 378.846,403.355 305.18,403.189 231.5,404C 226.762,404.519 222.095,405.352 217.5,406.5C 219.858,404.871 222.524,403.705 225.5,403C 299.167,402.333 372.833,402.333 446.5,403C 448.708,403.191 450.708,403.691 452.5,404.5 Z"/></g>
<g><path style="opacity:0.11" fill="#d1d1d1" d="M 112.5,398.5 C 114.341,400.849 115.674,403.515 116.5,406.5C 114.127,404.421 112.794,401.754 112.5,398.5 Z"/></g>
<g><path style="opacity:0.11" fill="#b9b9b9" d="M 452.5,404.5 C 456.567,404.206 459.9,405.54 462.5,408.5C 459.011,407.342 455.678,406.009 452.5,404.5 Z"/></g>
<g><path style="opacity:0.176" fill="#cfcfcf" d="M 116.5,406.5 C 117.906,406.973 118.573,407.973 118.5,409.5C 117.094,409.027 116.427,408.027 116.5,406.5 Z"/></g>
<g><path style="opacity:0.102" fill="#d5d5d5" d="M 215.5,407.5 C 214.341,409.25 212.674,410.25 210.5,410.5C 211.659,408.75 213.326,407.75 215.5,407.5 Z"/></g>
<g><path style="opacity:0.231" fill="#a9a9a9" d="M 484.5,404.5 C 486.914,405.911 488.581,407.911 489.5,410.5C 487.086,409.089 485.419,407.089 484.5,404.5 Z"/></g>
<g><path style="opacity:0.471" fill="#c1c1c1" d="M 118.5,409.5 C 121.5,411.833 124.167,414.5 126.5,417.5C 122.833,415.833 120.167,413.167 118.5,409.5 Z"/></g>
<g><path style="opacity:0.494" fill="#939393" d="M 188.5,408.5 C 188.573,410.027 187.906,411.027 186.5,411.5C 186.427,409.973 187.094,408.973 188.5,408.5 Z"/></g>
<g><path style="opacity:0.294" fill="#c6c6c6" d="M 464.5,409.5 C 466.404,409.738 467.738,410.738 468.5,412.5C 466.596,412.262 465.262,411.262 464.5,409.5 Z"/></g>
<g><path style="opacity:1" fill="#0b0b0b" d="M 308.5,416.5 C 311.507,422.527 314.84,422.86 318.5,417.5C 320.027,417.573 321.027,416.906 321.5,415.5C 332.792,408.839 344.125,408.839 355.5,415.5C 356.262,417.262 357.596,418.262 359.5,418.5C 360.605,419.6 361.938,420.267 363.5,420.5C 366.089,419.581 368.089,417.914 369.5,415.5C 381.448,408.751 393.448,408.917 405.5,416C 406.71,417.039 407.71,418.206 408.5,419.5C 409.314,421.273 410.648,421.773 412.5,421C 414.041,419.629 415.375,418.129 416.5,416.5C 418.027,416.573 419.027,415.906 419.5,414.5C 426.636,410.789 434.302,409.622 442.5,411C 446.229,411.844 449.563,413.344 452.5,415.5C 453.262,417.262 454.596,418.262 456.5,418.5C 457.5,418.833 458.167,419.5 458.5,420.5C 459.08,422.749 460.413,424.415 462.5,425.5C 464.293,427.426 465.293,429.759 465.5,432.5C 466.307,438.464 466.64,444.464 466.5,450.5C 464.28,460.948 458.28,468.281 448.5,472.5C 446.302,472.12 444.635,472.787 443.5,474.5C 443.167,474.5 442.833,474.5 442.5,474.5C 437.5,474.5 432.5,474.5 427.5,474.5C 425.214,474.405 423.214,473.738 421.5,472.5C 421.027,471.094 420.027,470.427 418.5,470.5C 416.973,470.573 415.973,469.906 415.5,468.5C 414.738,466.738 413.404,465.738 411.5,465.5C 410.221,464.285 409.221,464.618 408.5,466.5C 406.588,469.461 403.921,471.461 400.5,472.5C 398.102,472.259 396.102,472.926 394.5,474.5C 388.131,474.653 381.797,474.32 375.5,473.5C 373.847,473.34 372.514,472.674 371.5,471.5C 371.027,470.094 370.027,469.427 368.5,469.5C 366.264,468.611 364.264,467.278 362.5,465.5C 358.04,470.063 352.707,473.063 346.5,474.5C 341.167,474.5 335.833,474.5 330.5,474.5C 328.214,474.405 326.214,473.738 324.5,472.5C 324.027,471.094 323.027,470.427 321.5,470.5C 319.596,470.262 318.262,469.262 317.5,467.5C 314.511,463.475 311.844,463.809 309.5,468.5C 307.853,470.326 305.853,471.66 303.5,472.5C 301.102,472.259 299.102,472.926 297.5,474.5C 291.131,474.653 284.797,474.32 278.5,473.5C 276.847,473.34 275.514,472.674 274.5,471.5C 274.027,470.094 273.027,469.427 271.5,469.5C 270.415,467.413 268.749,466.08 266.5,465.5C 263.031,468.072 259.364,470.406 255.5,472.5C 253.102,472.259 251.102,472.926 249.5,474.5C 242.045,474.848 234.712,474.182 227.5,472.5C 227.027,471.094 226.027,470.427 224.5,470.5C 222.223,469.551 220.223,468.218 218.5,466.5C 218.262,464.596 217.262,463.262 215.5,462.5C 214.833,462.5 214.5,462.167 214.5,461.5C 213.07,457.646 211.403,453.979 209.5,450.5C 209.425,444.471 209.759,438.471 210.5,432.5C 211.674,431.486 212.34,430.153 212.5,428.5C 212.328,427.508 212.662,426.842 213.5,426.5C 215.262,425.738 216.262,424.404 216.5,422.5C 218.5,421.167 220.167,419.5 221.5,417.5C 223.027,417.573 224.027,416.906 224.5,415.5C 225.514,414.326 226.847,413.66 228.5,413.5C 235.063,411.953 241.73,411.286 248.5,411.5C 250.965,411.767 253.299,412.434 255.5,413.5C 255.821,415.048 256.821,415.715 258.5,415.5C 261.089,416.419 263.089,418.086 264.5,420.5C 267.581,421.194 269.914,419.861 271.5,416.5C 278.85,410.907 287.183,409.074 296.5,411C 300.95,412.061 304.95,413.895 308.5,416.5 Z M 249.5,429.5 C 249.973,430.906 250.973,431.573 252.5,431.5C 257.825,439.199 257.825,446.866 252.5,454.5C 250.01,456.356 247.344,457.69 244.5,458.5C 241.455,458.492 238.455,458.159 235.5,457.5C 233.537,456.18 231.537,454.846 229.5,453.5C 228.492,451.456 227.492,449.456 226.5,447.5C 226.335,444.482 226.502,441.482 227,438.5C 228.193,436.114 229.36,433.78 230.5,431.5C 232.027,431.573 233.027,430.906 233.5,429.5C 238.804,426.921 244.137,426.921 249.5,429.5 Z M 293.5,427.5 C 295.456,428.492 297.456,429.492 299.5,430.5C 299.833,431.5 300.5,432.167 301.5,432.5C 301.427,434.027 302.094,435.027 303.5,435.5C 304.769,440.514 304.769,445.514 303.5,450.5C 301.477,453.52 298.81,455.854 295.5,457.5C 291.513,458.705 287.513,458.705 283.5,457.5C 282.71,456.599 281.71,455.932 280.5,455.5C 279.5,453.833 278.167,452.5 276.5,451.5C 276.204,449.597 275.537,447.93 274.5,446.5C 274.474,441.915 275.474,437.581 277.5,433.5C 279.525,431.804 281.525,430.137 283.5,428.5C 286.786,427.793 290.119,427.46 293.5,427.5 Z M 341.5,427.5 C 342.93,428.537 344.597,429.204 346.5,429.5C 347.833,431.5 349.5,433.167 351.5,434.5C 354.167,440.167 354.167,445.833 351.5,451.5C 349.5,452.833 347.833,454.5 346.5,456.5C 344.597,456.796 342.93,457.463 341.5,458.5C 338.455,458.492 335.455,458.159 332.5,457.5C 329.19,455.854 326.523,453.52 324.5,450.5C 322.755,444.202 323.422,438.202 326.5,432.5C 328.389,431.396 330.055,430.063 331.5,428.5C 334.786,427.793 338.119,427.46 341.5,427.5 Z M 394.5,429.5 C 394.973,430.906 395.973,431.573 397.5,431.5C 398.026,433.23 399.026,434.564 400.5,435.5C 401.272,439.452 401.605,443.452 401.5,447.5C 400.334,450.503 398.667,453.17 396.5,455.5C 394.973,455.427 393.973,456.094 393.5,457.5C 391.901,457.232 390.568,457.566 389.5,458.5C 386.455,458.492 383.455,458.159 380.5,457.5C 375.612,455.288 372.612,451.621 371.5,446.5C 371.46,443.119 371.793,439.786 372.5,436.5C 377.859,428.159 385.193,425.825 394.5,429.5 Z M 438.5,427.5 C 449.412,432.216 452.745,440.216 448.5,451.5C 446.5,452.833 444.833,454.5 443.5,456.5C 438.603,458.548 433.603,458.881 428.5,457.5C 416.511,447.882 416.511,438.215 428.5,428.5C 431.786,427.793 435.119,427.46 438.5,427.5 Z"/></g>
<g><path style="opacity:0.412" fill="#989898" d="M 17.5,397.5 C 16.8354,403.477 16.502,409.477 16.5,415.5C 15.3493,410.35 15.1826,405.016 16,399.5C 16.2784,398.584 16.7784,397.918 17.5,397.5 Z"/></g>
<g><path style="opacity:0.012" fill="#dddddd" d="M 209.5,411.5 C 209.027,412.906 208.027,413.573 206.5,413.5C 206.973,412.094 207.973,411.427 209.5,411.5 Z"/></g>
<g><path style="opacity:0.957" fill="#565656" d="M 248.5,411.5 C 241.73,411.286 235.063,411.953 228.5,413.5C 230.277,412.4 232.277,411.566 234.5,411C 239.352,410.185 244.019,410.352 248.5,411.5 Z"/></g>
<g><path style="opacity:0.663" fill="#a3a3a3" d="M 468.5,412.5 C 471.167,413.167 472.833,414.833 473.5,417.5C 471.5,416.167 469.833,414.5 468.5,412.5 Z"/></g>
<g><path style="opacity:0.243" fill="#bbbbbb" d="M 489.5,410.5 C 490.906,410.973 491.573,411.973 491.5,413.5C 490.094,413.027 489.427,412.027 489.5,410.5 Z"/></g>
<g><path style="opacity:0.431" fill="#969696" d="M 186.5,411.5 C 186.573,413.027 185.906,414.027 184.5,414.5C 184.427,412.973 185.094,411.973 186.5,411.5 Z"/></g>
<g><path style="opacity:0.906" fill="#7e7e7e" d="M 255.5,413.5 C 256.71,413.932 257.71,414.599 258.5,415.5C 256.821,415.715 255.821,415.048 255.5,413.5 Z"/></g>
<g><path style="opacity:0.004" fill="#cdcdcd" d="M 355.5,415.5 C 357.404,415.738 358.738,416.738 359.5,418.5C 357.596,418.262 356.262,417.262 355.5,415.5 Z"/></g>
<g><path style="opacity:0.549" fill="#b0b0b0" d="M 419.5,414.5 C 419.027,415.906 418.027,416.573 416.5,416.5C 416.973,415.094 417.973,414.427 419.5,414.5 Z"/></g>
<g><path style="opacity:0.004" fill="#d4d4d4" d="M 452.5,415.5 C 454.404,415.738 455.738,416.738 456.5,418.5C 454.596,418.262 453.262,417.262 452.5,415.5 Z"/></g>
<g><path style="opacity:0.004" fill="#dbdbdb" d="M 204.5,415.5 C 204.262,417.404 203.262,418.738 201.5,419.5C 201.738,417.596 202.738,416.262 204.5,415.5 Z"/></g>
<g><path style="opacity:0.737" fill="#7f7f7f" d="M 224.5,415.5 C 224.027,416.906 223.027,417.573 221.5,417.5C 221.973,416.094 222.973,415.427 224.5,415.5 Z"/></g>
<g><path style="opacity:0.008" fill="#c3c3c3" d="M 308.5,416.5 C 310.716,417.203 312.549,418.536 314,420.5C 315.129,418.859 316.629,417.859 318.5,417.5C 314.84,422.86 311.507,422.527 308.5,416.5 Z"/></g>
<g><path style="opacity:0.776" fill="#7c7c7c" d="M 321.5,415.5 C 321.027,416.906 320.027,417.573 318.5,417.5C 318.973,416.094 319.973,415.427 321.5,415.5 Z"/></g>
<g><path style="opacity:0.576" fill="#9b9b9b" d="M 271.5,416.5 C 269.914,419.861 267.581,421.194 264.5,420.5C 266.833,419.167 269.167,417.833 271.5,416.5 Z"/></g>
<g><path style="opacity:0.494" fill="#aeaeae" d="M 416.5,416.5 C 415.375,418.129 414.041,419.629 412.5,421C 410.648,421.773 409.314,421.273 408.5,419.5C 409.496,419.414 410.329,419.748 411,420.5C 412.451,418.536 414.284,417.203 416.5,416.5 Z"/></g>
<g><path style="opacity:0.361" fill="#bebebe" d="M 221.5,417.5 C 220.167,419.5 218.5,421.167 216.5,422.5C 217.167,419.833 218.833,418.167 221.5,417.5 Z"/></g>
<g><path style="opacity:0.808" fill="#787878" d="M 369.5,415.5 C 368.089,417.914 366.089,419.581 363.5,420.5C 364.911,418.086 366.911,416.419 369.5,415.5 Z"/></g>
<g><path style="opacity:0.02" fill="#d0d0d0" d="M 128.5,419.5 C 130.027,419.427 131.027,420.094 131.5,421.5C 129.973,421.573 128.973,420.906 128.5,419.5 Z"/></g>
<g><path style="opacity:0.09" fill="#d4d4d4" d="M 491.5,413.5 C 494.207,416.247 495.873,419.58 496.5,423.5C 494.326,420.485 492.659,417.151 491.5,413.5 Z"/></g>
<g><path style="opacity:0.314" fill="#b2b2b2" d="M 474.5,418.5 C 477.164,420.484 478.831,423.151 479.5,426.5C 477.336,424.178 475.669,421.511 474.5,418.5 Z"/></g>
<g><path style="opacity:0.549" fill="#a8a8a8" d="M 107.5,423.5 C 109.749,424.08 111.415,425.413 112.5,427.5C 110.251,426.92 108.585,425.587 107.5,423.5 Z"/></g>
<g><path style="opacity:0.031" fill="#cccccc" d="M 133.5,423.5 C 135.027,423.427 136.027,424.094 136.5,425.5C 134.973,425.573 133.973,424.906 133.5,423.5 Z"/></g>
<g><path style="opacity:0.784" fill="#8a8a8a" d="M 216.5,422.5 C 216.262,424.404 215.262,425.738 213.5,426.5C 213.738,424.596 214.738,423.262 216.5,422.5 Z"/></g>
<g><path style="opacity:0.133" fill="#c8c8c8" d="M 200.5,420.5 C 193.723,433.37 192.723,446.704 197.5,460.5C 195.554,458.266 194.387,455.599 194,452.5C 193.333,446.167 193.333,439.833 194,433.5C 195.143,428.547 197.31,424.214 200.5,420.5 Z"/></g>
<g><path style="opacity:0.212" fill="#bcbcbc" d="M 458.5,420.5 C 460.587,421.585 461.92,423.251 462.5,425.5C 460.413,424.415 459.08,422.749 458.5,420.5 Z"/></g>
<g><path style="opacity:0.01" fill="#eeeeee" d="M 496.5,423.5 C 498.074,425.102 498.741,427.102 498.5,429.5C 497.262,427.786 496.595,425.786 496.5,423.5 Z"/></g>
<g><path style="opacity:0.008" fill="#bcbcbc" d="M 136.5,425.5 C 138.754,426.124 140.421,427.457 141.5,429.5C 139.205,428.864 137.539,427.531 136.5,425.5 Z"/></g>
<g><path style="opacity:0.627" fill="#717171" d="M 249.5,429.5 C 244.137,426.921 238.804,426.921 233.5,429.5C 235.332,427.106 237.832,426.106 241,426.5C 244.408,426.245 247.241,427.245 249.5,429.5 Z"/></g>
<g><path style="opacity:0.576" fill="#666666" d="M 293.5,427.5 C 290.119,427.46 286.786,427.793 283.5,428.5C 285.117,427.028 287.117,426.361 289.5,426.5C 291.045,426.511 292.378,426.844 293.5,427.5 Z"/></g>
<g><path style="opacity:0.612" fill="#5e5e5e" d="M 341.5,427.5 C 338.119,427.46 334.786,427.793 331.5,428.5C 333.117,427.028 335.117,426.361 337.5,426.5C 339.045,426.511 340.378,426.844 341.5,427.5 Z"/></g>
<g><path style="opacity:0.588" fill="#626262" d="M 438.5,427.5 C 435.119,427.46 431.786,427.793 428.5,428.5C 430.117,427.028 432.117,426.361 434.5,426.5C 436.045,426.511 437.378,426.844 438.5,427.5 Z"/></g>
<g><path style="opacity:0.882" fill="#6a6a6a" d="M 293.5,427.5 C 296.313,427.025 298.313,428.025 299.5,430.5C 297.456,429.492 295.456,428.492 293.5,427.5 Z"/></g>
<g><path style="opacity:0.702" fill="#8d8d8d" d="M 18.5,425.5 C 19.5375,426.93 20.2041,428.597 20.5,430.5C 18.7868,429.365 18.1201,427.698 18.5,425.5 Z"/></g>
<g><path style="opacity:0.788" fill="#777777" d="M 114.5,429.5 C 116.404,429.738 117.738,430.738 118.5,432.5C 116.596,432.262 115.262,431.262 114.5,429.5 Z"/></g>
<g><path style="opacity:0.635" fill="#9a9a9a" d="M 249.5,429.5 C 251.027,429.427 252.027,430.094 252.5,431.5C 250.973,431.573 249.973,430.906 249.5,429.5 Z"/></g>
<g><path style="opacity:0.729" fill="#939393" d="M 346.5,429.5 C 349.167,430.167 350.833,431.833 351.5,434.5C 349.5,433.167 347.833,431.5 346.5,429.5 Z"/></g>
<g><path style="opacity:0.537" fill="#adadad" d="M 394.5,429.5 C 396.027,429.427 397.027,430.094 397.5,431.5C 395.973,431.573 394.973,430.906 394.5,429.5 Z"/></g>
<g><path style="opacity:0.055" fill="#d6d6d6" d="M 212.5,428.5 C 212.34,430.153 211.674,431.486 210.5,432.5C 210.229,430.62 210.896,429.287 212.5,428.5 Z"/></g>
<g><path style="opacity:0.02" fill="#cecece" d="M 233.5,429.5 C 233.027,430.906 232.027,431.573 230.5,431.5C 230.973,430.094 231.973,429.427 233.5,429.5 Z"/></g>
<g><path style="opacity:0.035" fill="#c8c8c8" d="M 143.5,431.5 C 145.027,431.427 146.027,432.094 146.5,433.5C 144.973,433.573 143.973,432.906 143.5,431.5 Z"/></g>
<g><path style="opacity:0.251" fill="#a1a1a1" d="M 20.5,430.5 C 22.0075,432.181 23.0075,434.181 23.5,436.5C 21.0246,435.313 20.0246,433.313 20.5,430.5 Z"/></g>
<g><path style="opacity:0.016" fill="#d6d6d6" d="M 301.5,432.5 C 302.906,432.973 303.573,433.973 303.5,435.5C 302.094,435.027 301.427,434.027 301.5,432.5 Z"/></g>
<g><path style="opacity:0.6" fill="#878787" d="M 397.5,431.5 C 399.446,432.035 400.446,433.368 400.5,435.5C 399.026,434.564 398.026,433.23 397.5,431.5 Z"/></g>
<g><path style="opacity:0.659" fill="#848484" d="M 118.5,432.5 C 121.089,433.419 123.089,435.086 124.5,437.5C 121.911,436.581 119.911,434.914 118.5,432.5 Z"/></g>
<g><path style="opacity:0.035" fill="#c8c8c8" d="M 148.5,435.5 C 150.027,435.427 151.027,436.094 151.5,437.5C 149.973,437.573 148.973,436.906 148.5,435.5 Z"/></g>
<g><path style="opacity:0.227" fill="#bebebe" d="M 230.5,431.5 C 229.36,433.78 228.193,436.114 227,438.5C 226.502,441.482 226.335,444.482 226.5,447.5C 225.359,444.36 225.192,441.027 226,437.5C 226.792,434.894 228.292,432.894 230.5,431.5 Z"/></g>
<g><path style="opacity:0.055" fill="#d6d6d6" d="M 0.5,423.5 C 3.61606,434.732 8.61606,445.066 15.5,454.5C 12.5421,451.94 10.0421,448.94 8,445.5C 4.65166,438.926 1.81832,432.259 -0.5,425.5C -0.5,425.167 -0.5,424.833 -0.5,424.5C 0.166667,424.5 0.5,424.167 0.5,423.5 Z"/></g>
<g><path style="opacity:0.192" fill="#cccccc" d="M 23.5,436.5 C 24.9063,436.973 25.573,437.973 25.5,439.5C 24.0937,439.027 23.427,438.027 23.5,436.5 Z"/></g>
<g><path style="opacity:0.416" fill="#898989" d="M 465.5,432.5 C 467.03,435.695 467.696,439.195 467.5,443C 467.497,445.69 467.164,448.19 466.5,450.5C 466.64,444.464 466.307,438.464 465.5,432.5 Z"/></g>
<g><path style="opacity:0.506" fill="#9c9c9c" d="M 124.5,437.5 C 126.749,438.08 128.415,439.413 129.5,441.5C 127.251,440.92 125.585,439.587 124.5,437.5 Z"/></g>
<g><path style="opacity:0.255" fill="#b5b5b5" d="M 151.5,437.5 C 152.117,437.611 152.617,437.944 153,438.5C 153.5,453.163 153.667,467.83 153.5,482.5C 158.833,482.5 164.167,482.5 169.5,482.5C 169.5,488.167 169.5,493.833 169.5,499.5C 169.167,499.5 168.833,499.5 168.5,499.5C 168.5,494.167 168.5,488.833 168.5,483.5C 163.167,483.5 157.833,483.5 152.5,483.5C 152.802,468.119 152.469,452.785 151.5,437.5 Z"/></g>
<g><path style="opacity:0.282" fill="#bfbfbf" d="M 25.5,439.5 C 26.9063,439.973 27.573,440.973 27.5,442.5C 26.0937,442.027 25.427,441.027 25.5,439.5 Z"/></g>
<g><path style="opacity:0.108" fill="#c6c6c6" d="M 252.5,431.5 C 254.335,432.122 255.502,433.456 256,435.5C 258,440.5 258,445.5 256,450.5C 255.34,452.324 254.173,453.657 252.5,454.5C 257.825,446.866 257.825,439.199 252.5,431.5 Z"/></g>
<g><path style="opacity:0.055" fill="#b3b3b3" d="M 303.5,435.5 C 306.834,439.703 307.334,444.37 305,449.5C 304.617,450.056 304.117,450.389 303.5,450.5C 304.769,445.514 304.769,440.514 303.5,435.5 Z"/></g>
<g><path style="opacity:0.369" fill="#909090" d="M 351.5,434.5 C 353.755,436.759 354.755,439.592 354.5,443C 354.349,445.197 354.015,447.364 353.5,449.5C 353.253,450.713 352.586,451.38 351.5,451.5C 354.167,445.833 354.167,440.167 351.5,434.5 Z"/></g>
<g><path style="opacity:0.075" fill="#b6b6b6" d="M 400.5,435.5 C 401.117,435.611 401.617,435.944 402,436.5C 402.81,440.358 402.643,444.024 401.5,447.5C 401.605,443.452 401.272,439.452 400.5,435.5 Z"/></g>
<g><path style="opacity:0.471" fill="#b7b7b7" d="M 184.5,414.5 C 175.025,434.297 175.358,453.964 185.5,473.5C 179.103,464.474 175.77,454.307 175.5,443C 176.048,437.783 176.881,432.616 178,427.5C 179.143,422.547 181.31,418.214 184.5,414.5 Z"/></g>
<g><path style="opacity:0.059" fill="#d8d8d8" d="M 372.5,436.5 C 371.793,439.786 371.46,443.119 371.5,446.5C 370.844,445.378 370.511,444.045 370.5,442.5C 370.361,440.117 371.028,438.117 372.5,436.5 Z"/></g>
<g><path style="opacity:0.322" fill="#888888" d="M 479.5,426.5 C 481.129,428.858 482.295,431.524 483,434.5C 483.667,440.167 483.667,445.833 483,451.5C 482.722,452.416 482.222,453.082 481.5,453.5C 483.12,444.326 482.454,435.326 479.5,426.5 Z"/></g>
<g><path style="opacity:0.702" fill="#afafaf" d="M 27.5,442.5 C 32.2297,446.227 36.2297,450.56 39.5,455.5C 34.7703,451.773 30.7703,447.44 27.5,442.5 Z"/></g>
<g><path style="opacity:0.482" fill="#a7a7a7" d="M 129.5,441.5 C 132.089,442.419 134.089,444.086 135.5,446.5C 132.911,445.581 130.911,443.914 129.5,441.5 Z"/></g>
<g><path style="opacity:0.341" fill="#b0b0b0" d="M 277.5,433.5 C 275.474,437.581 274.474,441.915 274.5,446.5C 272.663,441.565 273.663,437.231 277.5,433.5 Z"/></g>
<g><path style="opacity:0.029" fill="#e2e2e2" d="M 210.5,432.5 C 209.759,438.471 209.425,444.471 209.5,450.5C 208.836,448.19 208.503,445.69 208.5,443C 208.304,439.195 208.97,435.695 210.5,432.5 Z"/></g>
<g><path style="opacity:0.11" fill="#dddddd" d="M 326.5,432.5 C 323.422,438.202 322.755,444.202 324.5,450.5C 323.778,450.082 323.278,449.416 323,448.5C 322.333,444.833 322.333,441.167 323,437.5C 323.697,435.416 324.864,433.749 326.5,432.5 Z"/></g>
<g><path style="opacity:0.47" fill="#aeaeae" d="M 135.5,446.5 C 136.451,447.919 136.784,449.585 136.5,451.5C 131.167,451.5 125.833,451.5 120.5,451.5C 120.5,456.833 120.5,462.167 120.5,467.5C 120.5,462.167 120.5,456.833 120.5,451.5C 125.833,451.5 131.167,451.5 136.5,451.5C 136.784,449.585 136.451,447.919 135.5,446.5 Z"/></g>
<g><path style="opacity:0.792" fill="#8a8a8a" d="M 226.5,447.5 C 227.492,449.456 228.492,451.456 229.5,453.5C 227.025,452.313 226.025,450.313 226.5,447.5 Z"/></g>
<g><path style="opacity:0.624" fill="#a8a8a8" d="M 276.5,451.5 C 278.167,452.5 279.5,453.833 280.5,455.5C 278.167,455.167 276.833,453.833 276.5,451.5 Z"/></g>
<g><path style="opacity:0.486" fill="#9d9d9d" d="M 351.5,451.5 C 350.833,454.167 349.167,455.833 346.5,456.5C 347.833,454.5 349.5,452.833 351.5,451.5 Z"/></g>
<g><path style="opacity:0.714" fill="#757575" d="M 448.5,451.5 C 447.833,454.167 446.167,455.833 443.5,456.5C 444.833,454.5 446.5,452.833 448.5,451.5 Z"/></g>
<g><path style="opacity:0.004" fill="#bdbdbd" d="M 39.5,455.5 C 40.8333,455.5 41.5,456.167 41.5,457.5C 40.5,457.167 39.8333,456.5 39.5,455.5 Z"/></g>
<g><path style="opacity:0.004" fill="#bebebe" d="M 15.5,454.5 C 17.2644,455.326 18.5977,456.659 19.5,458.5C 17.2901,458.106 15.9568,456.773 15.5,454.5 Z"/></g>
<g><path style="opacity:0.094" fill="#cecece" d="M 209.5,450.5 C 211.403,453.979 213.07,457.646 214.5,461.5C 211.512,458.519 209.846,454.852 209.5,450.5 Z"/></g>
<g><path style="opacity:0.91" fill="#7b7b7b" d="M 280.5,455.5 C 281.71,455.932 282.71,456.599 283.5,457.5C 281.821,457.715 280.821,457.048 280.5,455.5 Z"/></g>
<g><path style="opacity:0.741" fill="#808080" d="M 396.5,455.5 C 396.027,456.906 395.027,457.573 393.5,457.5C 393.973,456.094 394.973,455.427 396.5,455.5 Z"/></g>
<g><path style="opacity:0.008" fill="#bababa" d="M 41.5,457.5 C 47.4422,461.773 52.7756,466.773 57.5,472.5C 51.5578,468.227 46.2244,463.227 41.5,457.5 Z"/></g>
<g><path style="opacity:0.345" fill="#929292" d="M 235.5,457.5 C 238.455,458.159 241.455,458.492 244.5,458.5C 243.551,459.152 242.385,459.486 241,459.5C 238.779,459.607 236.946,458.94 235.5,457.5 Z"/></g>
<g><path style="opacity:0.329" fill="#a7a7a7" d="M 283.5,457.5 C 287.513,458.705 291.513,458.705 295.5,457.5C 291.53,460.079 287.53,460.079 283.5,457.5 Z"/></g>
<g><path style="opacity:0.529" fill="#949494" d="M 332.5,457.5 C 335.455,458.159 338.455,458.492 341.5,458.5C 340.551,459.152 339.385,459.486 338,459.5C 335.779,459.607 333.946,458.94 332.5,457.5 Z"/></g>
<g><path style="opacity:0.369" fill="#909090" d="M 380.5,457.5 C 383.455,458.159 386.455,458.492 389.5,458.5C 388.551,459.152 387.385,459.486 386,459.5C 383.779,459.607 381.946,458.94 380.5,457.5 Z"/></g>
<g><path style="opacity:0.635" fill="#8f8f8f" d="M 443.5,456.5 C 443.389,457.117 443.056,457.617 442.5,458C 437.603,460.128 432.936,459.962 428.5,457.5C 433.603,458.881 438.603,458.548 443.5,456.5 Z"/></g>
<g><path style="opacity:0.212" fill="#a3a3a3" d="M 481.5,453.5 C 481.459,457.236 480.126,460.236 477.5,462.5C 478.597,459.314 479.93,456.314 481.5,453.5 Z"/></g>
<g><path style="opacity:0.153" fill="#c5c5c5" d="M 197.5,460.5 C 199.25,461.659 200.25,463.326 200.5,465.5C 198.75,464.341 197.75,462.674 197.5,460.5 Z"/></g>
<g><path style="opacity:0.012" fill="#cfcfcf" d="M 215.5,462.5 C 217.262,463.262 218.262,464.596 218.5,466.5C 216.738,465.738 215.738,464.404 215.5,462.5 Z"/></g>
<g><path style="opacity:0.745" fill="#8a8a8a" d="M 266.5,465.5 C 268.749,466.08 270.415,467.413 271.5,469.5C 269.251,468.92 267.585,467.587 266.5,465.5 Z"/></g>
<g><path style="opacity:0.004" fill="#d6d6d6" d="M 411.5,465.5 C 410.609,466.11 409.609,466.443 408.5,466.5C 409.221,464.618 410.221,464.285 411.5,465.5 Z"/></g>
<g><path style="opacity:0.722" fill="#929292" d="M 411.5,465.5 C 413.404,465.738 414.738,466.738 415.5,468.5C 413.596,468.262 412.262,467.262 411.5,465.5 Z"/></g>
<g><path style="opacity:0.412" fill="#b1b1b1" d="M 477.5,462.5 C 477.727,464.933 476.727,466.599 474.5,467.5C 475.11,465.566 476.11,463.899 477.5,462.5 Z"/></g>
<g><path style="opacity:0.529" fill="#b3b3b3" d="M 200.5,465.5 C 202.262,466.262 203.262,467.596 203.5,469.5C 201.738,468.738 200.738,467.404 200.5,465.5 Z"/></g>
<g><path style="opacity:0.027" fill="#c2c2c2" d="M 317.5,467.5 C 315.983,467.489 314.816,466.823 314,465.5C 312.871,467.141 311.371,468.141 309.5,468.5C 311.844,463.809 314.511,463.475 317.5,467.5 Z"/></g>
<g><path style="opacity:0.78" fill="#838383" d="M 203.5,469.5 C 204.833,470.167 205.833,471.167 206.5,472.5C 204.5,472.5 203.5,471.5 203.5,469.5 Z"/></g>
<g><path style="opacity:0.455" fill="#959595" d="M 271.5,469.5 C 273.027,469.427 274.027,470.094 274.5,471.5C 272.973,471.573 271.973,470.906 271.5,469.5 Z"/></g>
<g><path style="opacity:0.569" fill="#7e7e7e" d="M 368.5,469.5 C 370.027,469.427 371.027,470.094 371.5,471.5C 369.973,471.573 368.973,470.906 368.5,469.5 Z"/></g>
<g><path style="opacity:0.357" fill="#a5a5a5" d="M 224.5,470.5 C 226.027,470.427 227.027,471.094 227.5,472.5C 225.973,472.573 224.973,471.906 224.5,470.5 Z"/></g>
<g><path style="opacity:0.459" fill="#969696" d="M 321.5,470.5 C 323.027,470.427 324.027,471.094 324.5,472.5C 322.973,472.573 321.973,471.906 321.5,470.5 Z"/></g>
<g><path style="opacity:0.545" fill="#828282" d="M 418.5,470.5 C 420.027,470.427 421.027,471.094 421.5,472.5C 419.973,472.573 418.973,471.906 418.5,470.5 Z"/></g>
<g><path style="opacity:0.478" fill="#959595" d="M 474.5,467.5 C 472.833,471.167 470.167,473.833 466.5,475.5C 468.833,472.5 471.5,469.833 474.5,467.5 Z"/></g>
<g><path style="opacity:0.094" fill="#cdcdcd" d="M 499.5,449.5 C 499.5,451.5 499.5,453.5 499.5,455.5C 497.846,462.456 494.846,468.789 490.5,474.5C 494.519,466.435 497.519,458.101 499.5,449.5 Z"/></g>
<g><path style="opacity:0.706" fill="#808080" d="M 448.5,472.5 C 447.22,473.931 445.553,474.598 443.5,474.5C 444.635,472.787 446.302,472.12 448.5,472.5 Z"/></g>
<g><path style="opacity:0.027" fill="#bbbbbb" d="M 207.5,473.5 C 209.404,473.738 210.738,474.738 211.5,476.5C 209.596,476.262 208.262,475.262 207.5,473.5 Z"/></g>
<g><path style="opacity:0.29" fill="#adadad" d="M 255.5,472.5 C 253.786,473.738 251.786,474.405 249.5,474.5C 251.102,472.926 253.102,472.259 255.5,472.5 Z"/></g>
<g><path style="opacity:0.388" fill="#959595" d="M 303.5,472.5 C 301.786,473.738 299.786,474.405 297.5,474.5C 299.102,472.926 301.102,472.259 303.5,472.5 Z"/></g>
<g><path style="opacity:0.333" fill="#a3a3a3" d="M 400.5,472.5 C 398.786,473.738 396.786,474.405 394.5,474.5C 396.102,472.926 398.102,472.259 400.5,472.5 Z"/></g>
<g><path style="opacity:0.075" fill="#bebebe" d="M 185.5,473.5 C 186.906,473.973 187.573,474.973 187.5,476.5C 186.094,476.027 185.427,475.027 185.5,473.5 Z"/></g>
<g><path style="opacity:0.682" fill="#868686" d="M 227.5,472.5 C 234.712,474.182 242.045,474.848 249.5,474.5C 242.022,476.771 234.689,476.104 227.5,472.5 Z"/></g>
<g><path style="opacity:0.663" fill="#909090" d="M 278.5,473.5 C 284.797,474.32 291.131,474.653 297.5,474.5C 291.131,476.741 284.797,476.408 278.5,473.5 Z"/></g>
<g><path style="opacity:0.686" fill="#8f8f8f" d="M 330.5,474.5 C 335.833,474.5 341.167,474.5 346.5,474.5C 343.977,475.254 341.311,475.92 338.5,476.5C 335.689,475.92 333.023,475.254 330.5,474.5 Z"/></g>
<g><path style="opacity:0.671" fill="#8e8e8e" d="M 375.5,473.5 C 381.797,474.32 388.131,474.653 394.5,474.5C 388.131,476.741 381.797,476.408 375.5,473.5 Z"/></g>
<g><path style="opacity:0.686" fill="#888888" d="M 427.5,474.5 C 432.5,474.5 437.5,474.5 442.5,474.5C 437.541,476.872 432.541,476.872 427.5,474.5 Z"/></g>
<g><path style="opacity:0.008" fill="#d9d9d9" d="M 490.5,474.5 C 490.262,476.404 489.262,477.738 487.5,478.5C 487.738,476.596 488.738,475.262 490.5,474.5 Z"/></g>
<g><path style="opacity:0.306" fill="#b1b1b1" d="M 59.5,474.5 C 62.5113,475.669 65.178,477.336 67.5,479.5C 64.1511,478.831 61.4844,477.164 59.5,474.5 Z"/></g>
<g><path style="opacity:0.294" fill="#aeaeae" d="M 466.5,475.5 C 465.341,477.25 463.674,478.25 461.5,478.5C 462.659,476.75 464.326,475.75 466.5,475.5 Z"/></g>
<g><path style="opacity:0.553" fill="#919191" d="M 187.5,476.5 C 189.531,477.539 190.864,479.205 191.5,481.5C 189.457,480.421 188.124,478.754 187.5,476.5 Z"/></g>
<g><path style="opacity:0.678" fill="#8e8e8e" d="M 459.5,479.5 C 457.898,481.074 455.898,481.741 453.5,481.5C 455.214,480.262 457.214,479.595 459.5,479.5 Z"/></g>
<g><path style="opacity:0.298" fill="#b0b0b0" d="M 135.5,467.5 C 136.488,472.64 136.821,477.974 136.5,483.5C 116.164,483.667 95.8306,483.5 75.5,483C 72.5243,482.295 69.8577,481.129 67.5,479.5C 71.1268,480.429 74.7934,481.263 78.5,482C 97.4971,482.5 116.497,482.667 135.5,482.5C 135.5,477.5 135.5,472.5 135.5,467.5 Z"/></g>
<g><path style="opacity:0.298" fill="#acacac" d="M 211.5,476.5 C 216.519,479.173 221.852,481.006 227.5,482C 302.851,482.818 378.184,482.651 453.5,481.5C 453.082,482.222 452.416,482.722 451.5,483C 375.833,483.667 300.167,483.667 224.5,483C 219.547,481.857 215.214,479.69 211.5,476.5 Z"/></g>
<g><path style="opacity:0.718" fill="#999999" d="M 193.5,483.5 C 196.089,484.419 198.089,486.086 199.5,488.5C 196.911,487.581 194.911,485.914 193.5,483.5 Z"/></g>
<g><path style="opacity:0.035" fill="#d8d8d8" d="M 486.5,479.5 C 485.167,482.833 482.833,485.167 479.5,486.5C 481.5,483.833 483.833,481.5 486.5,479.5 Z"/></g>
<g><path style="opacity:0.275" fill="#a4a4a4" d="M 45.5,484.5 C 48.0892,485.419 50.0892,487.086 51.5,489.5C 48.9108,488.581 46.9108,486.914 45.5,484.5 Z"/></g>
<g><path style="opacity:0.051" fill="#d7d7d7" d="M 478.5,487.5 C 477.738,489.262 476.404,490.262 474.5,490.5C 475.262,488.738 476.596,487.738 478.5,487.5 Z"/></g>
<g><path style="opacity:0.396" fill="#b1b1b1" d="M 199.5,488.5 C 201.404,488.738 202.738,489.738 203.5,491.5C 201.596,491.262 200.262,490.262 199.5,488.5 Z"/></g>
<g><path style="opacity:0.275" fill="#b5b5b5" d="M 51.5,489.5 C 53.0269,489.427 54.0269,490.094 54.5,491.5C 52.9731,491.573 51.9731,490.906 51.5,489.5 Z"/></g>
<g><path style="opacity:0.075" fill="#d3d3d3" d="M 205.5,492.5 C 207.153,492.66 208.486,493.326 209.5,494.5C 207.62,494.771 206.287,494.104 205.5,492.5 Z"/></g>
<g><path style="opacity:0.122" fill="#d0d0d0" d="M 54.5,491.5 C 59.022,493.264 63.3554,495.264 67.5,497.5C 62.4939,496.829 58.1606,494.829 54.5,491.5 Z"/></g>
<g><path style="opacity:0.043" fill="#e0e0e0" d="M 211.5,495.5 C 213.553,495.402 215.22,496.069 216.5,497.5C 214.447,497.598 212.78,496.931 211.5,495.5 Z"/></g>
<g><path style="opacity:0.02" fill="#cccccc" d="M 472.5,491.5 C 470.572,493.474 468.239,494.974 465.5,496C 462.02,497.103 458.687,498.269 455.5,499.5C 453.5,499.5 451.5,499.5 449.5,499.5C 457.355,497.658 465.021,494.992 472.5,491.5 Z"/></g>
<g><path style="opacity:0.341" fill="#bbbbbb" d="M 67.5,497.5 C 70.7814,497.42 73.7814,498.087 76.5,499.5C 74.8333,499.5 73.1667,499.5 71.5,499.5C 70.1667,498.833 68.8333,498.167 67.5,497.5 Z"/></g>
</svg>
