<?xml version="1.0" encoding="UTF-8"?>
<svg id="Layer_2" data-name="Layer 2" xmlns="http://www.w3.org/2000/svg" viewBox="0 0 372.91 397.96">
  <defs>
    <style>
      .cls-1 {
        fill: #fff;
        stroke-width: 0px;
      }
    </style>
  </defs>
  <g id="Layer_1-2" data-name="Layer 1">
    <path class="cls-1" d="m37.48,393.52v-242.13H0v-56.71h37.48v-12.82C37.48,36.98,68.55,0,140.05,0c16.77,0,35.51,2.46,48.33,6.41l-4.44,49.31c-8.88-1.97-18.74-2.96-28.6-2.96-30.08,0-41.42,11.84-41.42,31.07v10.85h63.61v56.71h-63.61v242.13H37.48Z"/>
    <path class="cls-1" d="m203.26,246.78c-16.96-13.2-28.65-32.05-28.65-62.96,0-46.37,29.03-75.4,94.63-75.4s93.87,28.65,93.87,75.78c0,25.26-11.69,45.99-30.54,60.32,22.62,12.06,40.34,30.91,40.34,67.48,0,56.93-35.06,85.96-103.67,85.96-72.01,0-104.81-30.16-104.81-86.33,0-25.64,13.95-49.76,38.83-64.84Zm49.01,23.75c-16.21,9.8-28.65,23.37-28.65,41.47,0,26.77,13.95,37.7,47.13,37.7,25.64,0,42.6-9.05,42.6-33.18s-25.26-33.93-61.07-45.99Zm31.67-43.36c16.21-10.18,24.51-21.87,24.51-38.08,0-21.11-12.06-31.67-39.59-31.67-25.26,0-36.95,9.42-36.95,29.41,0,24.13,23.75,32.04,52.03,40.34Z"/>
  </g>
</svg>