<svg xmlns="http://www.w3.org/2000/svg" xmlns:xlink="http://www.w3.org/1999/xlink" version="1.1" x="0px" y="0px" viewBox="0 0 100 125" enable-background="new 0 0 100 100" xml:space="preserve"><path fill="#566e2e" d="M26,12.484v17.515c0,11.87,8.665,21.749,20,23.661v14.475c-4.25-3.811-9.856-6.135-16-6.135h-4v4  c0,8.346,4.293,15.697,10.777,20H6v8h88v-8H63.223C69.707,81.696,74,74.345,74,65.999v-4h-4c-6.144,0-11.75,2.324-16,6.135V53.659  c11.335-1.912,20-11.791,20-23.661V16.484c-4.706-5.404-12.47-8.478-21.057-5.057C46.11,3.783,33.54,4.291,26,12.484z   M65.294,70.704c-1.556,5.045-5.543,9.033-10.588,10.588C56.262,76.247,60.249,72.259,65.294,70.704z M34,16.334  c3.636-2.671,8.662-2.983,12.234-0.194C42.588,18.983,37.575,18.892,34,16.334 M34,29.999v-4.735  c6.443,2.248,13.832,0.704,18.828-4.293c3.585-3.585,9.206-3.92,13.172-1.008v10.036c0,8.822-7.178,16-16,16S34,38.821,34,29.999z   M45.294,81.292c-5.045-1.555-9.032-5.543-10.588-10.588C39.751,72.259,43.738,76.247,45.294,81.292z"/>
</svg>