<svg xmlns="http://www.w3.org/2000/svg" 
data-name="Слой 3" 
viewBox="0 0 124.0887 188.83063750000002" 
x="0px" y="0px">
<title>12</title>
<path fill="#FFFFFF" d="M208.123,152.69758H174.74586a41.74026,41.74026,0,0,0,17.19164-33.71976,4.04573,4.04573,0,0,0-4.04637-4.04637H154.17137v-25.627a6.74395,6.74395,0,1,1,13.4879,0,4.04637,4.04637,0,1,0,8.09274,0,14.83219,14.83219,0,0,0-29.40583-2.76179,4.01636,4.01636,0,0,0-.26755,1.413v26.9758H112.35887a4.04573,4.04573,0,0,0-4.04637,4.04637,41.74026,41.74026,0,0,0,17.19164,33.71976H92.127a4.04573,4.04573,0,0,0-4.04637,4.04637v64.74193a4.04573,4.04573,0,0,0,4.04637,4.04637H208.123a4.04573,4.04573,0,0,0,4.04637-4.04637V156.744A4.04573,4.04573,0,0,0,208.123,152.69758Zm-91.47669-29.67339h66.95742a33.72271,33.72271,0,0,1-66.95742,0Zm-20.4729,37.76613h49.90524v56.64919H96.17339Zm107.90322,56.64919H154.17137V160.79032h49.90524Z" 
transform="translate(-88.08065 -74.46775)"/>
<path fill="#FFFFFF" d="M132.59073,176.97581a4.04572,4.04572,0,0,0-4.04637,4.04637v16.18548a4.04637,4.04637,0,0,0,8.09274,0V181.02218A4.04572,4.04572,0,0,0,132.59073,176.97581Z" transform="translate(-88.08065 -74.46775)"/>
<path fill="#FFFFFF" d="M167.65927,201.254a4.04573,4.04573,0,0,0,4.04637-4.04637V181.02218a4.04637,4.04637,0,0,0-8.09274,0v16.18548A4.04573,4.04573,0,0,0,167.65927,201.254Z" transform="translate(-88.08065 -74.46775)"/>
</svg>