<svg xmlns="http://www.w3.org/2000/svg" xmlns:xlink="http://www.w3.org/1999/xlink" version="1.1" x="0px" y="0px" viewBox="0 0 128 160" enable-background="new 0 0 128 128" xml:space="preserve"><g><path fill="#FFFFFF" d="M99.602,61.25L65.935,38.917c-1.172-0.778-2.697-0.778-3.869,0L28.398,61.25c-0.978,0.648-1.565,1.744-1.565,2.917V99.75   c0,5.652,5.159,10.25,11.5,10.25h51.334c6.341,0,11.5-5.047,11.5-11.25V64.167C101.167,62.994,100.579,61.899,99.602,61.25z    M73.833,103H54.167V85.833c0-4.687,3.813-8.5,8.5-8.5h2.666c4.687,0,8.5,3.813,8.5,8.5V103z M94.167,98.75   c0,2.343-2.019,4.25-4.5,4.25h-8.834V85.833c0-8.547-6.953-15.5-15.5-15.5h-2.666c-8.547,0-15.5,6.953-15.5,15.5V103h-8.834   c-2.397,0-4.5-1.519-4.5-3.25V66.045L64,46.033l30.167,20.012V98.75z"/><path fill="#FFFFFF" d="M114.71,53.659l-48.667-35c-1.221-0.878-2.866-0.878-4.087,0l-48.667,35c-1.569,1.128-1.927,3.315-0.798,4.885   c1.127,1.569,3.315,1.927,4.885,0.798L64,25.811l46.624,33.53c0.618,0.445,1.333,0.659,2.041,0.659   c1.088,0,2.161-0.506,2.844-1.457C116.637,56.974,116.28,54.787,114.71,53.659z"/></g>   
</svg>