<?xml version="1.0" encoding="UTF-8"?>
<!DOCTYPE svg PUBLIC "-//W3C//DTD SVG 1.1//EN" "http://www.w3.org/Graphics/SVG/1.1/DTD/svg11.dtd">
<svg xmlns="http://www.w3.org/2000/svg" version="1.1" width="659px" height="378px" style="shape-rendering:geometricPrecision; text-rendering:geometricPrecision; image-rendering:optimizeQuality; fill-rule:evenodd; clip-rule:evenodd" xmlns:xlink="http://www.w3.org/1999/xlink">
<g><path style="opacity:1" fill="#fcfcfc" d="M 303.5,76.5 C 303.892,78.1789 304.392,79.8455 305,81.5C 305.499,77.5138 305.666,73.5138 305.5,69.5C 305.5,54.1667 305.5,38.8333 305.5,23.5C 332.408,23.1718 359.241,23.5051 386,24.5C 386.333,110.833 386.667,197.167 387,283.5C 389.424,296.778 397.258,301.612 410.5,298C 414.593,295.993 417.427,292.827 419,288.5C 420.645,281.7 421.811,274.867 422.5,268C 421.225,237.226 421.225,206.392 422.5,175.5C 423.499,125.336 423.832,75.0028 423.5,24.5C 449.833,24.5 476.167,24.5 502.5,24.5C 502.5,25.5 502.5,26.5 502.5,27.5C 502.5,67.8333 502.5,108.167 502.5,148.5C 499.215,155.299 496.381,162.299 494,169.5C 493.075,170.047 492.242,170.713 491.5,171.5C 475.757,205.199 459.423,238.533 442.5,271.5C 440.634,273.925 439.634,276.759 439.5,280C 439.307,282.008 439.974,283.508 441.5,284.5C 445.293,289.919 450.126,290.919 456,287.5C 461.065,277.704 466.399,268.038 472,258.5C 480.726,239.195 489.892,220.195 499.5,201.5C 500.117,201.389 500.617,201.056 501,200.5C 501.5,252.832 501.667,305.166 501.5,357.5C 475.5,357.5 449.5,357.5 423.5,357.5C 423.832,346.147 423.499,334.814 422.5,323.5C 421.702,323.957 421.369,324.624 421.5,325.5C 421.5,325.833 421.5,326.167 421.5,326.5C 417.349,336.503 411.349,345.336 403.5,353C 393.585,359.623 382.585,362.79 370.5,362.5C 354.768,362.82 340.435,358.654 327.5,350C 319.307,342.122 313.807,332.622 311,321.5C 308.579,312.64 306.912,303.64 306,294.5C 297.451,328.233 276.284,349.733 242.5,359C 219.097,363.772 195.763,363.439 172.5,358C 139.303,348.801 119.136,327.301 112,293.5C 109.976,282.924 108.809,272.257 108.5,261.5C 108.18,258.102 108.513,254.768 109.5,251.5C 113.394,253.901 117.394,256.068 121.5,258C 123.5,258.667 125.5,258.667 127.5,258C 134.073,253.869 136.073,248.203 133.5,241C 125.333,236.167 117.167,231.333 109,226.5C 108.167,207.158 108.334,187.825 109.5,168.5C 118.301,164.024 126.468,158.691 134,152.5C 135.579,143.775 131.912,139.108 123,138.5C 117.645,139.262 112.811,141.262 108.5,144.5C 108.5,139.833 108.5,135.167 108.5,130.5C 108.178,124.642 108.511,118.975 109.5,113.5C 110.972,109.081 111.638,104.414 111.5,99.5C 113.297,77.7254 121.63,59.0587 136.5,43.5C 138.749,42.9202 140.415,41.5869 141.5,39.5C 146.49,34.3311 152.49,30.6644 159.5,28.5C 163.915,28.1394 167.915,26.8061 171.5,24.5C 199.28,17.1632 226.947,17.9966 254.5,27C 278.445,36.1109 294.778,52.6109 303.5,76.5 Z M 305.5,210.5 C 304.566,211.568 304.232,212.901 304.5,214.5C 301.287,214.19 298.287,214.523 295.5,215.5C 275.517,215.529 255.517,215.195 235.5,214.5C 232.186,214.343 229.186,215.009 226.5,216.5C 225.913,238.681 225.58,261.014 225.5,283.5C 220.308,298.426 210.641,302.259 196.5,295C 193.681,291.195 191.514,287.029 190,282.5C 188.67,240.511 188.17,198.511 188.5,156.5C 189.101,137.169 189.601,117.836 190,98.5C 193.815,83.8766 202.981,79.0432 217.5,84C 222.092,88.0851 224.592,93.2518 225,99.5C 225.173,118.407 225.673,137.24 226.5,156C 252.498,156.5 278.498,156.667 304.5,156.5C 304.171,174.479 304.504,192.479 305.5,210.5 Z"/></g>
<g><path style="opacity:0.878" fill="#a7a7a7" d="M 171.5,24.5 C 167.915,26.8061 163.915,28.1394 159.5,28.5C 163.085,26.1939 167.085,24.8606 171.5,24.5 Z"/></g>
<g><path style="opacity:0.035" fill="#333434" d="M 502.5,27.5 C 503.167,66.8333 503.833,106.167 504.5,145.5C 504.068,146.71 503.401,147.71 502.5,148.5C 502.5,108.167 502.5,67.8333 502.5,27.5 Z"/></g>
<g><path style="opacity:0.851" fill="#a8a8a8" d="M 141.5,39.5 C 140.415,41.5869 138.749,42.9202 136.5,43.5C 137.585,41.4131 139.251,40.0798 141.5,39.5 Z"/></g>
<g><path style="opacity:1" fill="#71a384" d="M 502.5,195.5 C 500.992,197.181 499.992,199.181 499.5,201.5C 489.892,220.195 480.726,239.195 472,258.5C 466.399,268.038 461.065,277.704 456,287.5C 450.126,290.919 445.293,289.919 441.5,284.5C 441.38,282.801 441.046,281.135 440.5,279.5C 441.762,276.978 442.429,274.311 442.5,271.5C 459.423,238.533 475.757,205.199 491.5,171.5C 492.242,170.713 493.075,170.047 494,169.5C 496.381,162.299 499.215,155.299 502.5,148.5C 503.401,147.71 504.068,146.71 504.5,145.5C 517.066,119.368 529.899,93.3677 543,67.5C 548.999,61.8875 554.666,62.2208 560,68.5C 561.483,71.7024 561.817,75.0357 561,78.5C 541.439,117.623 521.939,156.623 502.5,195.5 Z"/></g>
<g><path style="opacity:0.069" fill="#393939" d="M 305.5,69.5 C 305.666,73.5138 305.499,77.5138 305,81.5C 304.392,79.8455 303.892,78.1789 303.5,76.5C 304.167,74.1667 304.833,71.8333 305.5,69.5 Z"/></g>
<g><path style="opacity:0.459" fill="#979797" d="M 502.5,24.5 C 476.167,24.5 449.833,24.5 423.5,24.5C 423.832,75.0028 423.499,125.336 422.5,175.5C 422.5,124.833 422.5,74.1667 422.5,23.5C 449.339,23.1688 476.005,23.5021 502.5,24.5 Z"/></g>
<g><path style="opacity:0.89" fill="#acacac" d="M 111.5,99.5 C 111.638,104.414 110.972,109.081 109.5,113.5C 109.362,108.586 110.028,103.919 111.5,99.5 Z"/></g>
<g><path style="opacity:1" fill="#6fa184" d="M 108.5,261.5 C 107.677,258.023 107.177,254.356 107,250.5C 81.8316,235.248 56.4983,220.248 31,205.5C 25.8398,196.959 27.6731,190.126 36.5,185C 59.5544,172.142 82.5544,159.309 105.5,146.5C 107.027,146.573 108.027,145.906 108.5,144.5C 112.811,141.262 117.645,139.262 123,138.5C 131.912,139.108 135.579,143.775 134,152.5C 126.468,158.691 118.301,164.024 109.5,168.5C 108.334,187.825 108.167,207.158 109,226.5C 117.167,231.333 125.333,236.167 133.5,241C 136.073,248.203 134.073,253.869 127.5,258C 125.5,258.667 123.5,258.667 121.5,258C 117.394,256.068 113.394,253.901 109.5,251.5C 108.513,254.768 108.18,258.102 108.5,261.5 Z M 105.5,170.5 C 106.832,179.141 107.498,188.141 107.5,197.5C 107.167,206.5 106.833,215.5 106.5,224.5C 91.1663,215.835 76.1663,206.669 61.5,197C 76.3961,188.392 91.0628,179.559 105.5,170.5 Z"/></g>
<g><path style="opacity:1" fill="#6da081" d="M 535.5,156.5 C 534.167,151.5 534.167,146.5 535.5,141.5C 537.171,138.746 539.671,137.413 543,137.5C 546.409,137.952 549.576,139.119 552.5,141C 579.336,156.919 606.336,172.586 633.5,188C 641.061,194.701 641.395,201.701 634.5,209C 605.167,225.333 575.833,241.667 546.5,258C 538.184,259.034 533.184,255.367 531.5,247C 531.919,243.575 533.586,240.909 536.5,239C 559.629,226.033 582.629,212.867 605.5,199.5C 604.252,197.541 602.585,196.041 600.5,195C 578.44,182.644 556.774,169.811 535.5,156.5 Z"/></g>
<g><path style="opacity:0.278" fill="#656c69" d="M 108.5,130.5 C 108.5,135.167 108.5,139.833 108.5,144.5C 108.027,145.906 107.027,146.573 105.5,146.5C 105.783,145.711 106.283,145.044 107,144.5C 107.174,139.649 107.674,134.982 108.5,130.5 Z"/></g>
<g><path style="opacity:1" fill="#357265" d="M 535.5,141.5 C 534.167,146.5 534.167,151.5 535.5,156.5C 530.257,151.577 530.257,146.577 535.5,141.5 Z"/></g>
<g><path style="opacity:0.036" fill="#3a3a3a" d="M 305.5,210.5 C 305.5,212.167 305.5,213.833 305.5,215.5C 302.167,215.5 298.833,215.5 295.5,215.5C 298.287,214.523 301.287,214.19 304.5,214.5C 304.232,212.901 304.566,211.568 305.5,210.5 Z"/></g>
<g><path style="opacity:0.765" fill="#bababa" d="M 295.5,215.5 C 298.833,215.5 302.167,215.5 305.5,215.5C 279.339,216.498 253.005,216.831 226.5,216.5C 229.186,215.009 232.186,214.343 235.5,214.5C 255.517,215.195 275.517,215.529 295.5,215.5 Z"/></g>
<g><path style="opacity:0.806" fill="#a9a9a9" d="M 226.5,216.5 C 227.653,235.76 227.82,255.093 227,274.5C 226.819,277.695 226.319,280.695 225.5,283.5C 225.58,261.014 225.913,238.681 226.5,216.5 Z"/></g>
<g><path style="opacity:1" fill="#b7b697" d="M 442.5,271.5 C 442.429,274.311 441.762,276.978 440.5,279.5C 441.046,281.135 441.38,282.801 441.5,284.5C 439.974,283.508 439.307,282.008 439.5,280C 439.634,276.759 440.634,273.925 442.5,271.5 Z"/></g>
<g><path style="opacity:0.785" fill="#aaaaaa" d="M 502.5,195.5 C 503.371,249.838 503.371,304.172 502.5,358.5C 475.787,359.663 449.12,359.663 422.5,358.5C 422.646,347.813 422.312,337.146 421.5,326.5C 422.833,326.167 422.833,325.833 421.5,325.5C 421.369,324.624 421.702,323.957 422.5,323.5C 423.499,334.814 423.832,346.147 423.5,357.5C 449.5,357.5 475.5,357.5 501.5,357.5C 501.667,305.166 501.5,252.832 501,200.5C 500.617,201.056 500.117,201.389 499.5,201.5C 499.992,199.181 500.992,197.181 502.5,195.5 Z"/></g>
</svg>
