<?xml version="1.0" encoding="UTF-8"?>
<svg id="Layer_2" data-name="Layer 2" xmlns="http://www.w3.org/2000/svg" viewBox="0 0 204.18 149.39">
  <defs>
    <style>
      .cls-1 {
        fill: #ffffff;
        stroke-width: 0px;
      }
    </style>
  </defs>
  <g id="Layer_1-2" data-name="Layer 1">
    <path fill="#FFFFFF" class="cls-1" d="m169.96,68.69h-37.41v-1.57c17.75-2.92,30.53-19.52,27.97-38.05C158.33,13.22,145.02.98,129.05.06c-19.53-1.13-35.79,14.44-35.79,33.74,0,16.55,12.08,30.65,28.3,33.32v1.57H34.22c-3.13,0-5.95,1.9-7.13,4.8L.57,138.79c-2.05,5.06,1.67,10.59,7.13,10.59h188.77c5.46,0,9.19-5.53,7.13-10.59l-26.51-65.31c-1.18-2.9-4-4.8-7.13-4.8Zm-48.41,11v10.71c0,3.04,2.46,5.5,5.5,5.5h0c3.04,0,5.5-2.46,5.5-5.5v-10.71h35.19l23.83,58.7H12.61l23.83-58.7h85.12Zm11-23.78v-16.28c0-3.04-2.46-5.5-5.5-5.5h0c-3.04,0-5.5,2.46-5.5,5.5v16.28c-11.08-2.74-18.63-13.3-17.1-25.13,1.33-10.28,9.69-18.47,20-19.62,13.73-1.53,25.4,9.22,25.4,22.65,0,10.57-7.18,19.61-17.3,22.1Z"/>
  </g>
</svg>