<?xml version="1.0" encoding="UTF-8"?>
<svg id="Layer_2" data-name="Layer 2" xmlns="http://www.w3.org/2000/svg" viewBox="0 0 150.98 150.98">
  <defs>
    <style>
      .cls-1 {
        stroke-width: 0px;
      }
    </style>
  </defs>
  <g id="Layer_1-2" data-name="Layer 1">
    <path fill="#FFFFFF"  class="cls-1" d="m133.72,93.17h-26.2c-1.72,0-3.12-1.4-3.12-3.12v-26.2c0-9.52-7.74-17.26-17.26-17.26h-26.2c-1.72,0-3.12-1.4-3.12-3.12v-26.2C57.81,7.74,50.07,0,40.55,0h-23.29C7.74,0,0,7.74,0,17.26v116.46c0,9.52,7.74,17.26,17.26,17.26h116.46c9.52,0,17.26-7.74,17.26-17.26v-23.29c0-9.52-7.74-17.26-17.26-17.26Zm-87.13,43.46c0,1.72-1.4,3.12-3.12,3.12h-26.2c-3.33,0-6.03-2.71-6.03-6.03v-26.2c0-1.72,1.4-3.12,3.12-3.12h29.11c1.72,0,3.12,1.4,3.12,3.12v29.11Zm0-46.58c0,1.72-1.4,3.12-3.12,3.12H14.35c-1.72,0-3.12-1.4-3.12-3.12v-29.11c0-1.72,1.4-3.12,3.12-3.12h29.11c1.72,0,3.12,1.4,3.12,3.12v29.11Zm0-46.58c0,1.72-1.4,3.12-3.12,3.12H14.35c-1.72,0-3.12-1.4-3.12-3.12v-26.2c0-3.33,2.71-6.03,6.03-6.03h23.29c3.33,0,6.03,2.71,6.03,6.03v26.2Zm46.58,93.17c0,1.72-1.4,3.12-3.12,3.12h-29.11c-1.72,0-3.12-1.4-3.12-3.12v-29.11c0-1.72,1.4-3.12,3.12-3.12h29.11c1.72,0,3.12,1.4,3.12,3.12v29.11Zm0-46.58c0,1.72-1.4,3.12-3.12,3.12h-29.11c-1.72,0-3.12-1.4-3.12-3.12v-29.11c0-1.72,1.4-3.12,3.12-3.12h26.2c3.33,0,6.03,2.71,6.03,6.03v26.2Zm46.58,43.67c0,3.33-2.71,6.03-6.03,6.03h-26.2c-1.72,0-3.12-1.4-3.12-3.12v-29.11c0-1.72,1.4-3.12,3.12-3.12h26.2c3.33,0,6.03,2.71,6.03,6.03v23.29Z"/>
  </g>
</svg>