<?xml version="1.0" encoding="UTF-8"?>
<svg id="Layer_2" data-name="Layer 2" xmlns="http://www.w3.org/2000/svg" viewBox="0 0 124.09 151.06">
  <defs>
    <style>
      .cls-1 {
        stroke-width: 0px;
      }
    </style>
  </defs>
  <g id="Layer_1-2" data-name="Layer 1">
    <path fill="#FFFFFF" class="cls-1" d="m120.04,78.23h-33.38c10.79-7.85,17.18-20.38,17.19-33.72,0-2.23-1.81-4.05-4.05-4.05h-33.72V14.84c0-3.72,3.02-6.74,6.74-6.75s6.74,3.02,6.75,6.74h0c0,2.24,1.81,4.05,4.05,4.05s4.05-1.81,4.05-4.05C87.67,6.65,81.04,0,72.84,0c-7.13,0-13.25,5.07-14.58,12.07-.17.45-.26.93-.27,1.41v26.98H24.28c-2.23,0-4.05,1.81-4.05,4.05h0c.01,13.34,6.4,25.87,17.19,33.72H4.05C1.81,78.23,0,80.04,0,82.27H0v64.74c0,2.23,1.81,4.05,4.05,4.05h116c2.23,0,4.05-1.81,4.05-4.05h0v-64.74c0-2.23-1.81-4.05-4.05-4.05h0ZM28.57,48.56h66.96c-2.24,18.49-19.04,31.67-37.53,29.43-15.42-1.86-27.56-14.01-29.43-29.43Zm-20.47,37.77h49.91v56.65H8.09v-56.65Zm107.9,56.65h-49.91v-56.65h49.91v56.65Z"/>
  </g>
</svg>