<?xml version="1.0" encoding="UTF-8"?>
<svg id="Layer_2" data-name="Layer 2" xmlns="http://www.w3.org/2000/svg" viewBox="0 0 171.32 151.06">
  <defs>
    <style>
      .cls-1 {
        stroke-width: 0px;
      }
    </style>
  </defs>
  <g id="Layer_1-2" data-name="Layer 1">
    <g>
      <path fill="#FFFFFF" class="cls-1" d="m144.12,71.02l-55.28-36.67c-1.92-1.28-4.43-1.28-6.35,0l-55.28,36.67c-1.61,1.06-2.57,2.86-2.57,4.79v58.43c0,9.28,8.47,16.83,18.88,16.83h84.29c10.41,0,18.88-8.29,18.88-18.47v-56.79c0-1.93-.97-3.72-2.57-4.79Zm-42.31,68.55h-32.29v-28.19c0-7.7,6.26-13.96,13.96-13.96h4.38c7.7,0,13.96,6.26,13.96,13.96v28.19Zm33.39-6.98c0,3.85-3.32,6.98-7.39,6.98h-14.51v-28.19c0-14.03-11.42-25.45-25.45-25.45h-4.38c-14.03,0-25.45,11.42-25.45,25.45v28.19h-14.51c-3.94,0-7.39-2.49-7.39-5.34v-55.34l49.53-32.86,49.53,32.86v53.7Z"/>
      <path fill="#FFFFFF" class="cls-1" d="m168.93,58.55L89.01,1.08c-2-1.44-4.71-1.44-6.71,0L2.39,58.55c-2.58,1.85-3.16,5.44-1.31,8.02,1.85,2.58,5.44,3.16,8.02,1.31L85.66,12.82l76.56,55.06c1.01.73,2.19,1.08,3.35,1.08,1.79,0,3.55-.83,4.67-2.39,1.85-2.58,1.27-6.17-1.31-8.02Z"/>
    </g>
  </g>
</svg>