<?xml version="1.0" encoding="UTF-8"?>
<svg id="Layer_2" data-name="Layer 2" xmlns="http://www.w3.org/2000/svg" viewBox="0 0 83.54 151.06">
  <defs>
    <style>
      .cls-1 {
        stroke-width: 0px;
      }
    </style>
  </defs>
  <g id="Layer_1-2" data-name="Layer 1">
    <path fill="#FFFFFF" class="cls-1" d="m48.73,82.94c8.85-1.49,16.63-5.67,22.58-11.61,7.61-7.6,12.22-18.09,12.22-29.57v-23.91c-9.31-10.25-22.56-13.27-35.6-8.08-.83.33-1.78.11-2.38-.56C40.31,3.33,32.85.06,24.56,0,15.45-.04,6.55,3.78,0,10.57v31.19c0,11.48,4.61,21.97,12.22,29.57,5.95,5.94,13.74,10.12,22.59,11.61,1.03.17,1.78,1.06,1.78,2.1v26.48c0,.84-.49,1.6-1.26,1.95-.77.34-1.67.2-2.29-.36-7.68-6.89-17.57-10.68-27.84-10.68H0v5.19c0,9.97,3.57,19.44,9.87,26.88,2.8,3.71,6.12,6.92,9.82,9.5,6.41,4.47,13.97,7.07,22.08,7.07s15.68-2.59,22.08-7.07c3.7-2.59,7.02-5.8,9.82-9.51,6.29-7.44,9.86-16.9,9.86-26.87v-5.19h-5.19c-10.28,0-20.17,3.79-27.84,10.68-.63.56-1.52.7-2.29.36-.77-.34-1.26-1.11-1.26-1.95v-26.48c0-1.04.75-1.93,1.78-2.1Zm-14.06,54.15c-.41.41-.95.62-1.51.62-.21,0-.42-.03-.63-.09-9.94-3.06-17.71-10.83-20.78-20.77-.23-.76-.03-1.58.53-2.14.56-.56,1.38-.76,2.13-.53,9.94,3.06,17.71,10.83,20.78,20.77.23.76.03,1.58-.53,2.14Zm13.67-2.14c3.07-9.94,10.83-17.71,20.78-20.77.75-.23,1.58-.03,2.13.53s.76,1.38.53,2.14c-3.07,9.94-10.83,17.71-20.78,20.77-.21.06-.42.09-.63.09-.56,0-1.1-.22-1.51-.62-.56-.56-.76-1.38-.53-2.14ZM11.24,15.05c7.69-5.65,17.95-5.78,24.95-.32.52.4.82,1.02.82,1.68s-.3,1.28-.82,1.68c-3.69,2.87-8.18,4.32-12.69,4.32s-8.59-1.3-12.23-3.91c-.56-.4-.89-1.04-.89-1.72,0-.68.32-1.33.87-1.73Zm30.53,58.11c-8.41,0-16.05-3.33-21.7-8.73-5.97-5.72-9.7-13.76-9.7-22.66v-8.66c0-.69.33-1.34.9-1.74.56-.4,1.29-.5,1.94-.27,11.21,3.91,23.86,1.03,32.23-7.35,7.16-7.16,18.71-8.04,26.86-2.06.55.4.87,1.04.87,1.72v18.36c0,8.9-3.73,16.94-9.7,22.66-5.64,5.4-13.29,8.73-21.7,8.73Z"/>
  </g>
</svg>